<svg width="24" height="24" viewBox="0 0 24 24" fill="none" xmlns="http://www.w3.org/2000/svg">
<g id="fluent:location-12-filled">
<path id="Vector" d="M12 5C13.5913 5 15.1174 5.63214 16.2426 6.75736C17.3679 7.88258 18 9.4087 18 11C18 13.484 16.1067 16.0867 12.4 18.8667C12.2846 18.9532 12.1442 19 12 19C11.8558 19 11.7154 18.9532 11.6 18.8667C7.89333 16.0867 6 13.484 6 11C6 9.4087 6.63214 7.88258 7.75736 6.75736C8.88258 5.63214 10.4087 5 12 5ZM12 9C11.4696 9 10.9609 9.21071 10.5858 9.58579C10.2107 9.96086 10 10.4696 10 11C10 11.5304 10.2107 12.0391 10.5858 12.4142C10.9609 12.7893 11.4696 13 12 13C12.5304 13 13.0391 12.7893 13.4142 12.4142C13.7893 12.0391 14 11.5304 14 11C14 10.4696 13.7893 9.96086 13.4142 9.58579C13.0391 9.21071 12.5304 9 12 9Z" fill="#97A787"/>
</g>
</svg>
