<svg width="60" height="40" viewBox="0 0 60 40" fill="none" xmlns="http://www.w3.org/2000/svg">
<circle cx="21" cy="20" r="18.25" fill="#FDFDFD" stroke="#FE654F" stroke-width="1.5"/>
<path d="M59 20.75C59.4142 20.75 59.75 20.4142 59.75 20C59.75 19.5858 59.4142 19.25 59 19.25V20.75ZM20.4697 19.4697C20.1768 19.7626 20.1768 20.2374 20.4697 20.5303L25.2426 25.3033C25.5355 25.5962 26.0104 25.5962 26.3033 25.3033C26.5962 25.0104 26.5962 24.5355 26.3033 24.2426L22.0607 20L26.3033 15.7574C26.5962 15.4645 26.5962 14.9896 26.3033 14.6967C26.0104 14.4038 25.5355 14.4038 25.2426 14.6967L20.4697 19.4697ZM59 19.25L21 19.25V20.75L59 20.75V19.25Z" fill="#FE654F"/>
</svg>
