<svg width="60" height="40" viewBox="0 0 60 40" fill="none" xmlns="http://www.w3.org/2000/svg">
<circle cx="39" cy="20" r="18.25" fill="#FDFDFD" stroke="#FE654F" stroke-width="1.5"/>
<path d="M1 19.25C0.585786 19.25 0.25 19.5858 0.25 20C0.25 20.4142 0.585786 20.75 1 20.75L1 19.25ZM41.5303 20.5303C41.8232 20.2374 41.8232 19.7626 41.5303 19.4697L36.7574 14.6967C36.4645 14.4038 35.9896 14.4038 35.6967 14.6967C35.4038 14.9896 35.4038 15.4645 35.6967 15.7574L39.9393 20L35.6967 24.2426C35.4038 24.5355 35.4038 25.0104 35.6967 25.3033C35.9896 25.5962 36.4645 25.5962 36.7574 25.3033L41.5303 20.5303ZM1 20.75L41 20.75L41 19.25L1 19.25L1 20.75Z" fill="#FE654F"/>
</svg>
