<svg width="26" height="26" viewBox="0 0 26 26" fill="none" xmlns="http://www.w3.org/2000/svg">
<g id="Group">
<path id="Vector" d="M1 8.5H25L23.7475 22.2717C23.6798 23.017 23.3359 23.7102 22.7833 24.215C22.2307 24.7199 21.5094 24.9999 20.761 25.0002H5.239C4.49056 24.9999 3.76925 24.7199 3.2167 24.215C2.66414 23.7102 2.32023 23.017 2.2525 22.2717L1 8.5Z" stroke="#4B664E" stroke-width="2" stroke-linejoin="round"/>
<path id="Vector_2" d="M7 11.5001V7.00007C7 5.40875 7.63214 3.88261 8.75736 2.75738C9.88258 1.63215 11.4087 1 13 1C14.5913 1 16.1174 1.63215 17.2426 2.75738C18.3679 3.88261 19 5.40875 19 7.00007V11.5001" stroke="#4B664E" stroke-width="2" stroke-linecap="round"/>
</g>
</svg>
