<svg width="40" height="40" viewBox="0 0 40 40" fill="none" xmlns="http://www.w3.org/2000/svg">
<g id="ICONS/open, close">
<path id="Vector" d="M21.2499 19.9293L21.1792 20L21.2499 20.0707L27.1425 25.9633C27.28 26.1008 27.3573 26.2873 27.3573 26.4818C27.3573 26.6763 27.28 26.8628 27.1425 27.0004C27.005 27.1379 26.8184 27.2151 26.6239 27.2151C26.4295 27.2151 26.2429 27.1379 26.1054 27.0004L20.2128 21.1078L20.1421 21.0371L20.0714 21.1078L14.1789 27.0004C14.0413 27.1379 13.8548 27.2151 13.6603 27.2151C13.4658 27.2151 13.2793 27.1379 13.1418 27.0004C13.0043 26.8628 12.927 26.6763 12.927 26.4818C12.927 26.2873 13.0043 26.1008 13.1418 25.9633L19.0343 20.0707L19.105 20L19.0343 19.9293L13.1418 14.0367C13.0043 13.8992 12.927 13.7127 12.927 13.5182C12.927 13.3237 13.0043 13.1372 13.1418 12.9996C13.2793 12.8621 13.4658 12.7849 13.6603 12.7849C13.8548 12.7849 14.0413 12.8621 14.1789 12.9996L20.0714 18.8922L20.1421 18.9629L20.2128 18.8922L26.1054 12.9996C26.2429 12.8621 26.4295 12.7849 26.6239 12.7849C26.8184 12.7849 27.005 12.8621 27.1425 12.9996C27.28 13.1372 27.3573 13.3237 27.3573 13.5182C27.3573 13.7127 27.28 13.8992 27.1425 14.0367L21.2499 19.9293Z" fill="#4B664E" stroke="#4B664E" stroke-width="0.2"/>
</g>
</svg>
