<svg width="24" height="24" viewBox="0 0 24 24" fill="none" xmlns="http://www.w3.org/2000/svg">
<g id="uiw:time">
<path id="Vector" d="M12.1719 6C15.7618 6 18.6719 8.91005 18.6719 12.5C18.6719 16.0899 15.7618 19 12.1719 19C8.58193 19 5.67188 16.0899 5.67188 12.5C5.67188 8.91005 8.58193 6 12.1719 6ZM11.5674 9.62765C11.447 9.62765 11.3316 9.67545 11.2466 9.76054C11.1615 9.84562 11.1137 9.96102 11.1137 10.0813V13.709C11.1137 13.9599 11.3165 14.1627 11.5674 14.1627H15.195C15.256 14.165 15.3168 14.155 15.3738 14.1332C15.4309 14.1115 15.4829 14.0785 15.5269 14.0362C15.5708 13.9938 15.6058 13.9431 15.6297 13.8869C15.6536 13.8307 15.6659 13.7704 15.6659 13.7093C15.6659 13.6483 15.6536 13.5879 15.6297 13.5317C15.6058 13.4756 15.5708 13.4248 15.5269 13.3825C15.4829 13.3402 15.4309 13.3071 15.3738 13.2854C15.3168 13.2637 15.256 13.2536 15.195 13.2559H12.0204V10.0813C12.0204 9.96113 11.9727 9.84583 11.8878 9.76077C11.8028 9.6757 11.6876 9.62782 11.5674 9.62765Z" fill="#FDFDFD"/>
</g>
</svg>
