<svg width="24" height="24" viewBox="0 0 24 24" fill="none" xmlns="http://www.w3.org/2000/svg">
<g id="ant-design:instagram-filled">
<path id="Vector" d="M11.8264 10.3324C10.6328 10.3324 9.65883 11.3064 9.65883 12.5C9.65883 13.6936 10.6328 14.6676 11.8264 14.6676C13.0199 14.6676 13.9939 13.6936 13.9939 12.5C13.9939 11.3064 13.0199 10.3324 11.8264 10.3324ZM18.3274 12.5C18.3274 11.6024 18.3355 10.7129 18.2851 9.81694C18.2347 8.77623 17.9973 7.85261 17.2363 7.0916C16.4737 6.32896 15.5517 6.09317 14.511 6.04276C13.6134 5.99235 12.724 6.00048 11.828 6.00048C10.9304 6.00048 10.041 5.99235 9.14499 6.04276C8.10431 6.09317 7.1807 6.33058 6.4197 7.0916C5.65707 7.85424 5.42129 8.77623 5.37089 9.81694C5.32048 10.7145 5.32861 11.604 5.32861 12.5C5.32861 13.396 5.32048 14.2871 5.37089 15.1831C5.42129 16.2238 5.6587 17.1474 6.4197 17.9084C7.18233 18.671 8.10431 18.9068 9.14499 18.9572C10.0426 19.0076 10.932 18.9995 11.828 18.9995C12.7256 18.9995 13.6151 19.0076 14.511 18.9572C15.5517 18.9068 16.4753 18.6694 17.2363 17.9084C17.9989 17.1458 18.2347 16.2238 18.2851 15.1831C18.3372 14.2871 18.3274 13.3976 18.3274 12.5ZM11.8264 15.8351C9.98079 15.8351 8.49131 14.3456 8.49131 12.5C8.49131 10.6544 9.98079 9.16487 11.8264 9.16487C13.672 9.16487 15.1614 10.6544 15.1614 12.5C15.1614 14.3456 13.672 15.8351 11.8264 15.8351ZM15.298 9.80718C14.8671 9.80718 14.5191 9.4592 14.5191 9.02828C14.5191 8.59736 14.8671 8.24938 15.298 8.24938C15.7289 8.24938 16.0769 8.59736 16.0769 9.02828C16.077 9.1306 16.057 9.23195 16.0179 9.3265C15.9788 9.42106 15.9214 9.50698 15.8491 9.57933C15.7767 9.65169 15.6908 9.70905 15.5963 9.74815C15.5017 9.78725 15.4004 9.80731 15.298 9.80718Z" fill="#FDFDFD"/>
</g>
</svg>
