<svg width="25" height="24" viewBox="0 0 25 24" fill="none" xmlns="http://www.w3.org/2000/svg">
<g id="ant-design:instagram-filled">
<path id="Vector" d="M12.4983 10.3324C11.3047 10.3324 10.3307 11.3064 10.3307 12.5C10.3307 13.6936 11.3047 14.6676 12.4983 14.6676C13.6918 14.6676 14.6658 13.6936 14.6658 12.5C14.6658 11.3064 13.6918 10.3324 12.4983 10.3324ZM18.9993 12.5C18.9993 11.6024 19.0074 10.7129 18.957 9.81694C18.9066 8.77623 18.6692 7.85261 17.9082 7.0916C17.1456 6.32896 16.2236 6.09317 15.1829 6.04276C14.2853 5.99235 13.3958 6.00048 12.4999 6.00048C11.6023 6.00048 10.7128 5.99235 9.81687 6.04276C8.77618 6.09317 7.85258 6.33058 7.09158 7.0916C6.32895 7.85424 6.09317 8.77623 6.04276 9.81694C5.99235 10.7145 6.00048 11.604 6.00048 12.5C6.00048 13.396 5.99235 14.2871 6.04276 15.1831C6.09317 16.2238 6.33058 17.1474 7.09158 17.9084C7.8542 18.671 8.77618 18.9068 9.81687 18.9572C10.7145 19.0076 11.6039 18.9995 12.4999 18.9995C13.3975 18.9995 14.2869 19.0076 15.1829 18.9572C16.2236 18.9068 17.1472 18.6694 17.9082 17.9084C18.6708 17.1458 18.9066 16.2238 18.957 15.1831C19.009 14.2871 18.9993 13.3976 18.9993 12.5ZM12.4983 15.8351C10.6527 15.8351 9.16319 14.3456 9.16319 12.5C9.16319 10.6544 10.6527 9.16487 12.4983 9.16487C14.3438 9.16487 15.8333 10.6544 15.8333 12.5C15.8333 14.3456 14.3438 15.8351 12.4983 15.8351ZM15.9699 9.80718C15.539 9.80718 15.191 9.4592 15.191 9.02828C15.191 8.59736 15.539 8.24938 15.9699 8.24938C16.4008 8.24938 16.7488 8.59736 16.7488 9.02828C16.7489 9.1306 16.7289 9.23195 16.6898 9.3265C16.6507 9.42106 16.5933 9.50698 16.521 9.57933C16.4486 9.65169 16.3627 9.70905 16.2681 9.74815C16.1736 9.78725 16.0722 9.80731 15.9699 9.80718Z" fill="#97A787"/>
</g>
</svg>
