<svg width="96" height="26" viewBox="0 0 96 26" fill="none" xmlns="http://www.w3.org/2000/svg">
<path d="M50.3867 7.13672C50.3867 6.95182 50.3997 6.73958 50.4258 6.5C50.4544 6.26042 50.4688 6.04167 50.4688 5.84375C50.4688 5.83333 50.4688 5.82292 50.4688 5.8125C50.4688 5.64583 50.4779 5.53646 50.4961 5.48438C50.5039 5.2526 50.5104 4.9362 50.5156 4.53516C50.5234 4.13411 50.5312 3.64844 50.5391 3.07812L50.5508 2.12109C50.5508 2.05078 50.5755 1.99219 50.625 1.94531C50.6771 1.89583 50.7383 1.87109 50.8086 1.87109C50.8763 1.87109 50.9349 1.89714 50.9844 1.94922C51.0339 2.0013 51.0586 2.0612 51.0586 2.12891L51.0469 3.08203C51.0443 3.35286 51.0417 3.59766 51.0391 3.81641C51.0365 4.03255 51.0326 4.22135 51.0273 4.38281C51.5534 3.85156 52.0677 3.57031 52.5703 3.53906C52.6068 3.53646 52.6445 3.53516 52.6836 3.53516C53.1289 3.53516 53.4922 3.71094 53.7734 4.0625C53.9349 4.26562 54.0612 4.5013 54.1523 4.76953C54.2461 5.03776 54.293 5.3125 54.293 5.59375C54.293 5.80208 54.2643 6.00781 54.207 6.21094C54.1523 6.41406 54.0651 6.60417 53.9453 6.78125C53.7734 7.03385 53.5547 7.22917 53.2891 7.36719C53.0234 7.5026 52.7122 7.57031 52.3555 7.57031C51.7773 7.57031 51.3099 7.27604 50.9531 6.6875C50.9479 6.79948 50.9414 6.90104 50.9336 6.99219C50.9284 7.08333 50.9219 7.16276 50.9141 7.23047C50.9062 7.30078 50.8789 7.36328 50.832 7.41797C50.7878 7.47005 50.7318 7.49609 50.6641 7.49609C50.5651 7.49609 50.4935 7.46094 50.4492 7.39062C50.4076 7.31771 50.3867 7.23307 50.3867 7.13672ZM52.3516 7.0625C52.7917 7.0625 53.1393 6.92448 53.3945 6.64844C53.6523 6.3724 53.7812 6.01302 53.7812 5.57031C53.7812 5.31771 53.7357 5.07552 53.6445 4.84375C53.556 4.60938 53.4284 4.41797 53.2617 4.26953C53.0951 4.11849 52.8984 4.04297 52.6719 4.04297C52.6536 4.04297 52.6354 4.04297 52.6172 4.04297C52.125 4.07682 51.5898 4.45182 51.0117 5.16797C51.0091 5.22786 51.0078 5.28776 51.0078 5.34766C51.0078 5.40755 51.0065 5.46615 51.0039 5.52344C51.0247 5.58073 51.0521 5.66016 51.0859 5.76172C51.3802 6.62891 51.8021 7.0625 52.3516 7.0625ZM57.9648 3.87891L58.0117 4.46484C58.0404 4.9362 58.0547 5.37891 58.0547 5.79297C58.0547 7.53516 57.8021 8.7513 57.2969 9.44141C57.1641 9.6237 57.0117 9.75781 56.8398 9.84375C56.6706 9.92969 56.4896 9.97266 56.2969 9.97266C56.0469 9.97266 55.7826 9.90495 55.5039 9.76953C55.4154 9.72526 55.3711 9.64844 55.3711 9.53906C55.3711 9.46354 55.4062 9.39583 55.4766 9.33594C55.5469 9.27604 55.6315 9.26823 55.7305 9.3125C55.9362 9.41667 56.1211 9.46875 56.2852 9.46875C56.3997 9.46875 56.5039 9.44401 56.5977 9.39453C56.7773 9.30078 56.9258 9.13281 57.043 8.89062C57.1628 8.64844 57.2578 8.36198 57.3281 8.03125C57.401 7.70052 57.4531 7.35547 57.4844 6.99609C57.5182 6.63411 57.5378 6.28776 57.543 5.95703C57.4831 6.1237 57.4062 6.29948 57.3125 6.48438C57.2188 6.66667 57.1081 6.83854 56.9805 7C56.8555 7.16146 56.7161 7.29297 56.5625 7.39453C56.4115 7.49609 56.2461 7.54688 56.0664 7.54688C55.8529 7.54688 55.6719 7.48047 55.5234 7.34766C55.3776 7.21224 55.2539 7.02083 55.1523 6.77344C54.9727 6.34115 54.8828 5.77083 54.8828 5.0625C54.8828 4.67969 54.9089 4.25781 54.9609 3.79688C54.9688 3.72396 54.9974 3.67057 55.0469 3.63672C55.0964 3.60026 55.151 3.58203 55.2109 3.58203C55.2734 3.58203 55.3307 3.60286 55.3828 3.64453C55.4375 3.68359 55.4648 3.74349 55.4648 3.82422C55.4648 3.83464 55.4648 3.84505 55.4648 3.85547C55.4154 4.30339 55.3906 4.70833 55.3906 5.07031C55.3906 5.70833 55.4674 6.21354 55.6211 6.58594C55.7461 6.89062 55.8958 7.04297 56.0703 7.04297C56.2292 7.04297 56.4076 6.91536 56.6055 6.66016C57.0612 6.06901 57.3451 5.14453 57.457 3.88672C57.4622 3.8138 57.4896 3.75911 57.5391 3.72266C57.5911 3.68359 57.6471 3.66406 57.707 3.66406C57.7669 3.66406 57.8216 3.68229 57.8711 3.71875C57.9232 3.75521 57.9544 3.80859 57.9648 3.87891ZM61.0273 2.22266C61.0247 2.20964 61.0234 2.19661 61.0234 2.18359C61.0234 2.10807 61.0508 2.04948 61.1055 2.00781C61.1628 1.96354 61.224 1.94141 61.2891 1.94141C61.3438 1.94141 61.3945 1.95833 61.4414 1.99219C61.4883 2.02604 61.5169 2.07943 61.5273 2.15234C61.6211 2.81641 61.7188 3.42318 61.8203 3.97266C61.9245 4.51953 62.0326 5.01042 62.1445 5.44531C62.3659 6.3099 62.5807 6.79948 62.7891 6.91406C62.8307 6.9349 62.8685 6.92839 62.9023 6.89453C63.3789 6.43359 63.9492 4.86589 64.6133 2.19141C64.6289 2.13411 64.6602 2.08984 64.707 2.05859C64.7565 2.02474 64.8086 2.00781 64.8633 2.00781C64.9336 2.00781 64.9961 2.03776 65.0508 2.09766C65.1081 2.15755 65.1263 2.23047 65.1055 2.31641C64.4648 4.88672 63.9023 6.47396 63.418 7.07812C63.2383 7.30208 63.0365 7.41406 62.8125 7.41406C62.5625 7.41406 62.3411 7.26172 62.1484 6.95703C61.9583 6.65234 61.7878 6.20182 61.6367 5.60547C61.4336 4.80078 61.2305 3.67318 61.0273 2.22266ZM66.4453 6.17578C66.5208 6.44661 66.6667 6.65885 66.8828 6.8125C67.1016 6.96615 67.3763 7.04297 67.707 7.04297C68.1497 7.04297 68.6641 6.89844 69.25 6.60938C69.2865 6.59115 69.3242 6.58203 69.3633 6.58203C69.431 6.58203 69.4896 6.60547 69.5391 6.65234C69.5911 6.69922 69.6172 6.75781 69.6172 6.82812C69.6172 6.9401 69.5703 7.01953 69.4766 7.06641C69.1797 7.21224 68.8776 7.32943 68.5703 7.41797C68.263 7.50651 67.9661 7.55078 67.6797 7.55078C67.3854 7.55078 67.1107 7.49609 66.8555 7.38672C66.6029 7.27734 66.3867 7.09505 66.207 6.83984C66.1055 6.69661 66.0273 6.54427 65.9727 6.38281C65.918 6.22135 65.8906 6.04036 65.8906 5.83984C65.8906 5.7513 65.8958 5.65885 65.9062 5.5625C65.9661 5.0651 66.1732 4.63932 66.5273 4.28516C66.9857 3.82682 67.5885 3.59766 68.3359 3.59766C68.6224 3.59766 68.8737 3.65365 69.0898 3.76562C69.306 3.875 69.4596 4.03125 69.5508 4.23438C69.6003 4.34635 69.625 4.46484 69.625 4.58984C69.625 4.80339 69.569 4.99219 69.457 5.15625C69.3477 5.31771 69.1914 5.46745 68.9883 5.60547C68.418 5.99089 67.5911 6.18359 66.5078 6.18359C66.4922 6.18359 66.4714 6.18099 66.4453 6.17578ZM66.4023 5.69922C66.4388 5.68359 66.474 5.67578 66.5078 5.67578C67.4896 5.67578 68.2227 5.51172 68.707 5.18359C68.8424 5.09245 68.9453 5 69.0156 4.90625C69.0859 4.8099 69.1211 4.69922 69.1211 4.57422C69.1211 4.5013 69.1042 4.44271 69.0703 4.39844C69.0391 4.35417 68.9974 4.3125 68.9453 4.27344C68.7995 4.16146 68.5977 4.10547 68.3398 4.10547C67.9935 4.10547 67.6784 4.17057 67.3945 4.30078C67.1107 4.42839 66.8802 4.61198 66.7031 4.85156C66.5286 5.08854 66.4284 5.37109 66.4023 5.69922ZM70.6719 7.53125C70.599 7.53125 70.5365 7.49609 70.4844 7.42578C70.4323 7.35286 70.4062 7.28776 70.4062 7.23047C70.4062 7.18099 70.4141 7.13021 70.4297 7.07812C70.4479 7.02604 70.4583 6.97656 70.4609 6.92969C70.4688 6.78646 70.4831 6.59375 70.5039 6.35156C70.5247 6.10677 70.5352 5.86979 70.5352 5.64062C70.5352 5.47396 70.5326 5.29297 70.5273 5.09766C70.5117 4.52214 70.4883 4.17188 70.457 4.04688C70.444 3.99219 70.4375 3.94271 70.4375 3.89844C70.4375 3.82292 70.4583 3.76172 70.5 3.71484C70.5443 3.66536 70.6055 3.64062 70.6836 3.64062C70.7435 3.64062 70.7956 3.66016 70.8398 3.69922C70.8841 3.73828 70.9128 3.78255 70.9258 3.83203C70.9831 4.04818 71.0169 4.38021 71.0273 4.82812C71.4076 4.08073 71.9219 3.66667 72.5703 3.58594C72.5807 3.58594 72.5911 3.58594 72.6016 3.58594C72.6797 3.58594 72.7396 3.61458 72.7812 3.67188C72.8255 3.72656 72.8477 3.78646 72.8477 3.85156C72.8477 3.90885 72.8307 3.96094 72.7969 4.00781C72.763 4.05469 72.7083 4.08203 72.6328 4.08984C71.9714 4.17318 71.4844 4.76562 71.1719 5.86719C71.0964 6.13542 71.0391 6.41146 71 6.69531C70.9922 6.8125 70.9844 6.90495 70.9766 6.97266C70.9714 7.04036 70.9688 7.10417 70.9688 7.16406C70.9688 7.19792 70.9714 7.22526 70.9766 7.24609C70.9818 7.26693 70.9844 7.28516 70.9844 7.30078C70.9844 7.35807 70.9453 7.41146 70.8672 7.46094C70.7917 7.50781 70.7266 7.53125 70.6719 7.53125ZM74.6836 3.44922C75.332 3.48828 75.8633 3.80859 76.2773 4.41016C76.3893 4.57161 76.4753 4.7513 76.5352 4.94922C76.5951 5.14453 76.625 5.36198 76.625 5.60156C76.625 5.95833 76.5404 6.27865 76.3711 6.5625C76.2018 6.84375 75.9974 7.0612 75.7578 7.21484C75.6042 7.3138 75.431 7.39323 75.2383 7.45312C75.0456 7.51042 74.8464 7.53906 74.6406 7.53906C74.2578 7.53906 73.931 7.45573 73.6602 7.28906C73.3919 7.11979 73.1758 6.91016 73.0117 6.66016C72.7904 6.31641 72.6797 5.94792 72.6797 5.55469C72.6797 5.45052 72.6875 5.34505 72.7031 5.23828C72.776 4.72005 72.9935 4.29557 73.3555 3.96484C73.7201 3.63151 74.1315 3.45573 74.5898 3.4375C74.6211 3.43229 74.6523 3.4362 74.6836 3.44922ZM76.1133 5.57422C76.1133 5.27214 76.043 5.0026 75.9023 4.76562C75.7617 4.52604 75.5794 4.33594 75.3555 4.19531C75.1341 4.05208 74.901 3.97266 74.6562 3.95703C74.6354 3.95703 74.6146 3.95312 74.5938 3.94531C74.3281 3.96094 74.0885 4.04297 73.875 4.19141C73.6615 4.33724 73.4922 4.52995 73.3672 4.76953C73.2448 5.00651 73.1836 5.27083 73.1836 5.5625C73.1836 5.78646 73.2266 5.98958 73.3125 6.17188C73.401 6.35417 73.5143 6.51042 73.6523 6.64062C73.793 6.76823 73.9388 6.86328 74.0898 6.92578C74.2721 6.9987 74.4596 7.03516 74.6523 7.03516C74.9206 7.03516 75.1641 6.97266 75.3828 6.84766C75.6042 6.72005 75.7721 6.56641 75.8867 6.38672C75.9622 6.26693 76.0182 6.13802 76.0547 6C76.0938 5.85938 76.1133 5.71745 76.1133 5.57422ZM77.668 3.47656C77.7435 3.47656 77.806 3.50651 77.8555 3.56641C78.043 3.79297 78.1797 4.14193 78.2656 4.61328C78.6198 3.97266 79.0768 3.61198 79.6367 3.53125C79.7253 3.51823 79.8125 3.51172 79.8984 3.51172C80.2109 3.51172 80.487 3.58333 80.7266 3.72656C80.9661 3.86979 81.1628 4.05859 81.3164 4.29297C81.4701 4.52734 81.5742 4.77995 81.6289 5.05078C81.6654 5.22526 81.6836 5.40365 81.6836 5.58594C81.6836 6.16146 81.5 6.76953 81.1328 7.41016C81.0859 7.49089 81.0143 7.53125 80.918 7.53125C80.8372 7.53125 80.7643 7.49349 80.6992 7.41797C80.6367 7.33984 80.6341 7.2526 80.6914 7.15625C81.0143 6.59375 81.1758 6.06901 81.1758 5.58203C81.1758 5.4362 81.1615 5.29427 81.1328 5.15625C81.0911 4.95573 81.0143 4.76953 80.9023 4.59766C80.793 4.42578 80.6523 4.28776 80.4805 4.18359C80.3112 4.07682 80.1159 4.02344 79.8945 4.02344C79.8346 4.02344 79.7734 4.02734 79.7109 4.03516C79.4531 4.07161 79.2331 4.1849 79.0508 4.375C78.8685 4.5651 78.7214 4.79557 78.6094 5.06641C78.5 5.33464 78.4206 5.60807 78.3711 5.88672C78.3711 5.92057 78.3711 5.95443 78.3711 5.98828C78.3711 6.36328 78.3516 6.74089 78.3125 7.12109L78.2969 7.27344C78.2891 7.34635 78.2604 7.40104 78.2109 7.4375C78.1615 7.47135 78.1081 7.48828 78.0508 7.48828C77.9883 7.48828 77.9297 7.46875 77.875 7.42969C77.8229 7.39062 77.7956 7.33203 77.793 7.25391C77.7878 7.13672 77.7852 7.02214 77.7852 6.91016C77.7852 6.52734 77.8112 6.17448 77.8633 5.85156C77.8529 5.2526 77.806 4.80339 77.7227 4.50391C77.6419 4.20703 77.5677 4.01693 77.5 3.93359C77.4375 3.85547 77.4062 3.78646 77.4062 3.72656C77.4062 3.65104 77.4336 3.59115 77.4883 3.54688C77.543 3.5 77.6029 3.47656 77.668 3.47656ZM82.4688 2.75391C82.4688 2.65755 82.4974 2.5651 82.5547 2.47656C82.6146 2.38542 82.6875 2.3125 82.7734 2.25781C82.8594 2.20052 82.944 2.17188 83.0273 2.17188C83.1497 2.17188 83.2526 2.22396 83.3359 2.32812C83.4219 2.42969 83.4648 2.53125 83.4648 2.63281C83.4648 2.72917 83.4349 2.81771 83.375 2.89844C83.3151 2.97917 83.2344 3.03776 83.1328 3.07422C83.0182 3.13151 82.9167 3.16016 82.8281 3.16016C82.7318 3.16016 82.6471 3.12109 82.5742 3.04297C82.5039 2.96224 82.4688 2.86589 82.4688 2.75391ZM83.1016 6.86328C83.0938 7.07161 83.0651 7.23828 83.0156 7.36328C82.9661 7.48568 82.8802 7.54688 82.7578 7.54688C82.6901 7.54688 82.6302 7.52214 82.5781 7.47266C82.526 7.42318 82.5 7.36198 82.5 7.28906C82.5 7.25521 82.5065 7.22135 82.5195 7.1875C82.543 7.13281 82.5612 7.02474 82.5742 6.86328C82.5898 6.69922 82.6016 6.50651 82.6094 6.28516C82.6172 6.0638 82.6224 5.83594 82.625 5.60156C82.6302 5.36458 82.6328 5.14453 82.6328 4.94141C82.6328 4.73828 82.6328 4.57682 82.6328 4.45703C82.6328 4.23568 82.6315 4.02344 82.6289 3.82031C82.6289 3.73698 82.6549 3.67448 82.707 3.63281C82.7617 3.59115 82.8216 3.57031 82.8867 3.57031C82.9492 3.57031 83.0052 3.59115 83.0547 3.63281C83.1068 3.67188 83.1328 3.73177 83.1328 3.8125C83.1354 3.95052 83.1367 4.08594 83.1367 4.21875C83.1393 4.35156 83.1406 4.48177 83.1406 4.60938C83.1406 5.03385 83.138 5.41797 83.1328 5.76172C83.1302 6.10547 83.1198 6.47266 83.1016 6.86328ZM87.4023 7.53125C87.3451 7.53125 87.2878 7.50781 87.2305 7.46094C87.1758 7.41406 87.1484 7.36458 87.1484 7.3125C87.1484 7.18229 87.0339 7.02604 86.8047 6.84375C86.3047 6.45052 85.6536 6.07943 84.8516 5.73047C84.8255 5.72005 84.7969 5.70182 84.7656 5.67578C84.7578 6.00391 84.7539 6.28906 84.7539 6.53125C84.7539 6.91667 84.763 7.17057 84.7812 7.29297C84.7839 7.30859 84.7852 7.32292 84.7852 7.33594C84.7852 7.41406 84.7578 7.47396 84.7031 7.51562C84.6484 7.55729 84.5885 7.57812 84.5234 7.57812C84.4688 7.57812 84.4167 7.5612 84.3672 7.52734C84.3203 7.49349 84.2917 7.4401 84.2812 7.36719C84.2604 7.23438 84.25 6.96224 84.25 6.55078C84.25 5.67578 84.2956 4.17188 84.3867 2.03906C84.3893 1.96094 84.4167 1.90234 84.4688 1.86328C84.5208 1.82422 84.5781 1.80469 84.6406 1.80469C84.7031 1.80469 84.7604 1.82552 84.8125 1.86719C84.8646 1.90625 84.8906 1.96484 84.8906 2.04297C84.8906 2.04818 84.8906 2.05469 84.8906 2.0625C84.862 2.72917 84.8385 3.33464 84.8203 3.87891C84.8021 4.42057 84.7878 4.89974 84.7773 5.31641C84.7852 5.3112 84.7982 5.30208 84.8164 5.28906C84.8372 5.27344 84.8633 5.25651 84.8945 5.23828C85.3659 4.96745 85.7344 4.70312 86 4.44531C86.2708 4.18229 86.4062 3.98828 86.4062 3.86328C86.4062 3.79557 86.431 3.73698 86.4805 3.6875C86.5326 3.63542 86.5924 3.60938 86.6602 3.60938C86.7435 3.60938 86.806 3.63802 86.8477 3.69531C86.8919 3.7526 86.9141 3.82812 86.9141 3.92188C86.9141 4.14844 86.7409 4.43099 86.3945 4.76953C86.2227 4.9362 86.0677 5.06901 85.9297 5.16797C85.7943 5.26432 85.6484 5.36328 85.4922 5.46484C86.125 5.76693 86.6458 6.07812 87.0547 6.39844C87.4557 6.71354 87.6562 7.00651 87.6562 7.27734C87.6562 7.34505 87.6302 7.40495 87.5781 7.45703C87.5286 7.50651 87.4701 7.53125 87.4023 7.53125ZM91.2539 4.78516C91.2617 4.8138 91.2656 4.84375 91.2656 4.875C91.2656 4.9349 91.2539 5.00391 91.2305 5.08203C91.1914 5.49349 91.1719 5.86068 91.1719 6.18359C91.1719 6.63411 91.2096 7 91.2852 7.28125C91.293 7.30729 91.2969 7.33203 91.2969 7.35547C91.2969 7.42839 91.2682 7.48568 91.2109 7.52734C91.1562 7.57161 91.0964 7.59375 91.0312 7.59375C90.9818 7.59375 90.9349 7.57943 90.8906 7.55078C90.8464 7.52214 90.8151 7.47526 90.7969 7.41016C90.7161 7.11068 90.6732 6.73047 90.668 6.26953C90.4206 6.66797 90.1549 6.98177 89.8711 7.21094C89.6992 7.34896 89.5221 7.42708 89.3398 7.44531C89.2305 7.47656 89.1237 7.49219 89.0195 7.49219C88.8711 7.49219 88.7357 7.46484 88.6133 7.41016C88.4909 7.35547 88.3854 7.28646 88.2969 7.20312C88.138 7.05469 88.0143 6.86328 87.9258 6.62891C87.8398 6.39193 87.7969 6.11849 87.7969 5.80859C87.7969 5.41016 87.8893 5.02995 88.0742 4.66797C88.3451 4.13672 88.7565 3.78255 89.3086 3.60547C89.5195 3.53516 89.7227 3.5 89.918 3.5C90.1628 3.5 90.3932 3.55729 90.6094 3.67188C90.987 3.8724 91.2018 4.24349 91.2539 4.78516ZM90.7461 4.82031C90.7227 4.57031 90.6406 4.3724 90.5 4.22656C90.362 4.08073 90.1732 4.00781 89.9336 4.00781C89.7904 4.00781 89.6341 4.03516 89.4648 4.08984C89.0456 4.22266 88.7396 4.47917 88.5469 4.85938C88.3854 5.17969 88.3047 5.4987 88.3047 5.81641C88.3047 6.04036 88.3346 6.24089 88.3945 6.41797C88.4544 6.59505 88.5312 6.72786 88.625 6.81641C88.7422 6.92578 88.875 6.98047 89.0234 6.98047C89.0729 6.98047 89.1198 6.97526 89.1641 6.96484C89.2109 6.95182 89.263 6.94271 89.3203 6.9375C89.3646 6.93229 89.4518 6.87891 89.582 6.77734C89.7122 6.67318 89.8503 6.52604 89.9961 6.33594C90.1445 6.14583 90.2839 5.93229 90.4141 5.69531C90.5443 5.45833 90.6497 5.22005 90.7305 4.98047C90.7331 4.95443 90.7357 4.92839 90.7383 4.90234C90.7409 4.8737 90.7435 4.84635 90.7461 4.82031Z" fill="black"/>
<path d="M50.3867 7.13672C50.3867 6.95182 50.3997 6.73958 50.4258 6.5C50.4544 6.26042 50.4688 6.04167 50.4688 5.84375C50.4688 5.83333 50.4688 5.82292 50.4688 5.8125C50.4688 5.64583 50.4779 5.53646 50.4961 5.48438C50.5039 5.2526 50.5104 4.9362 50.5156 4.53516C50.5234 4.13411 50.5312 3.64844 50.5391 3.07812L50.5508 2.12109C50.5508 2.05078 50.5755 1.99219 50.625 1.94531C50.6771 1.89583 50.7383 1.87109 50.8086 1.87109C50.8763 1.87109 50.9349 1.89714 50.9844 1.94922C51.0339 2.0013 51.0586 2.0612 51.0586 2.12891L51.0469 3.08203C51.0443 3.35286 51.0417 3.59766 51.0391 3.81641C51.0365 4.03255 51.0326 4.22135 51.0273 4.38281C51.5534 3.85156 52.0677 3.57031 52.5703 3.53906C52.6068 3.53646 52.6445 3.53516 52.6836 3.53516C53.1289 3.53516 53.4922 3.71094 53.7734 4.0625C53.9349 4.26562 54.0612 4.5013 54.1523 4.76953C54.2461 5.03776 54.293 5.3125 54.293 5.59375C54.293 5.80208 54.2643 6.00781 54.207 6.21094C54.1523 6.41406 54.0651 6.60417 53.9453 6.78125C53.7734 7.03385 53.5547 7.22917 53.2891 7.36719C53.0234 7.5026 52.7122 7.57031 52.3555 7.57031C51.7773 7.57031 51.3099 7.27604 50.9531 6.6875C50.9479 6.79948 50.9414 6.90104 50.9336 6.99219C50.9284 7.08333 50.9219 7.16276 50.9141 7.23047C50.9062 7.30078 50.8789 7.36328 50.832 7.41797C50.7878 7.47005 50.7318 7.49609 50.6641 7.49609C50.5651 7.49609 50.4935 7.46094 50.4492 7.39062C50.4076 7.31771 50.3867 7.23307 50.3867 7.13672ZM52.3516 7.0625C52.7917 7.0625 53.1393 6.92448 53.3945 6.64844C53.6523 6.3724 53.7812 6.01302 53.7812 5.57031C53.7812 5.31771 53.7357 5.07552 53.6445 4.84375C53.556 4.60938 53.4284 4.41797 53.2617 4.26953C53.0951 4.11849 52.8984 4.04297 52.6719 4.04297C52.6536 4.04297 52.6354 4.04297 52.6172 4.04297C52.125 4.07682 51.5898 4.45182 51.0117 5.16797C51.0091 5.22786 51.0078 5.28776 51.0078 5.34766C51.0078 5.40755 51.0065 5.46615 51.0039 5.52344C51.0247 5.58073 51.0521 5.66016 51.0859 5.76172C51.3802 6.62891 51.8021 7.0625 52.3516 7.0625ZM57.9648 3.87891L58.0117 4.46484C58.0404 4.9362 58.0547 5.37891 58.0547 5.79297C58.0547 7.53516 57.8021 8.7513 57.2969 9.44141C57.1641 9.6237 57.0117 9.75781 56.8398 9.84375C56.6706 9.92969 56.4896 9.97266 56.2969 9.97266C56.0469 9.97266 55.7826 9.90495 55.5039 9.76953C55.4154 9.72526 55.3711 9.64844 55.3711 9.53906C55.3711 9.46354 55.4062 9.39583 55.4766 9.33594C55.5469 9.27604 55.6315 9.26823 55.7305 9.3125C55.9362 9.41667 56.1211 9.46875 56.2852 9.46875C56.3997 9.46875 56.5039 9.44401 56.5977 9.39453C56.7773 9.30078 56.9258 9.13281 57.043 8.89062C57.1628 8.64844 57.2578 8.36198 57.3281 8.03125C57.401 7.70052 57.4531 7.35547 57.4844 6.99609C57.5182 6.63411 57.5378 6.28776 57.543 5.95703C57.4831 6.1237 57.4062 6.29948 57.3125 6.48438C57.2188 6.66667 57.1081 6.83854 56.9805 7C56.8555 7.16146 56.7161 7.29297 56.5625 7.39453C56.4115 7.49609 56.2461 7.54688 56.0664 7.54688C55.8529 7.54688 55.6719 7.48047 55.5234 7.34766C55.3776 7.21224 55.2539 7.02083 55.1523 6.77344C54.9727 6.34115 54.8828 5.77083 54.8828 5.0625C54.8828 4.67969 54.9089 4.25781 54.9609 3.79688C54.9688 3.72396 54.9974 3.67057 55.0469 3.63672C55.0964 3.60026 55.151 3.58203 55.2109 3.58203C55.2734 3.58203 55.3307 3.60286 55.3828 3.64453C55.4375 3.68359 55.4648 3.74349 55.4648 3.82422C55.4648 3.83464 55.4648 3.84505 55.4648 3.85547C55.4154 4.30339 55.3906 4.70833 55.3906 5.07031C55.3906 5.70833 55.4674 6.21354 55.6211 6.58594C55.7461 6.89062 55.8958 7.04297 56.0703 7.04297C56.2292 7.04297 56.4076 6.91536 56.6055 6.66016C57.0612 6.06901 57.3451 5.14453 57.457 3.88672C57.4622 3.8138 57.4896 3.75911 57.5391 3.72266C57.5911 3.68359 57.6471 3.66406 57.707 3.66406C57.7669 3.66406 57.8216 3.68229 57.8711 3.71875C57.9232 3.75521 57.9544 3.80859 57.9648 3.87891ZM61.0273 2.22266C61.0247 2.20964 61.0234 2.19661 61.0234 2.18359C61.0234 2.10807 61.0508 2.04948 61.1055 2.00781C61.1628 1.96354 61.224 1.94141 61.2891 1.94141C61.3438 1.94141 61.3945 1.95833 61.4414 1.99219C61.4883 2.02604 61.5169 2.07943 61.5273 2.15234C61.6211 2.81641 61.7188 3.42318 61.8203 3.97266C61.9245 4.51953 62.0326 5.01042 62.1445 5.44531C62.3659 6.3099 62.5807 6.79948 62.7891 6.91406C62.8307 6.9349 62.8685 6.92839 62.9023 6.89453C63.3789 6.43359 63.9492 4.86589 64.6133 2.19141C64.6289 2.13411 64.6602 2.08984 64.707 2.05859C64.7565 2.02474 64.8086 2.00781 64.8633 2.00781C64.9336 2.00781 64.9961 2.03776 65.0508 2.09766C65.1081 2.15755 65.1263 2.23047 65.1055 2.31641C64.4648 4.88672 63.9023 6.47396 63.418 7.07812C63.2383 7.30208 63.0365 7.41406 62.8125 7.41406C62.5625 7.41406 62.3411 7.26172 62.1484 6.95703C61.9583 6.65234 61.7878 6.20182 61.6367 5.60547C61.4336 4.80078 61.2305 3.67318 61.0273 2.22266ZM66.4453 6.17578C66.5208 6.44661 66.6667 6.65885 66.8828 6.8125C67.1016 6.96615 67.3763 7.04297 67.707 7.04297C68.1497 7.04297 68.6641 6.89844 69.25 6.60938C69.2865 6.59115 69.3242 6.58203 69.3633 6.58203C69.431 6.58203 69.4896 6.60547 69.5391 6.65234C69.5911 6.69922 69.6172 6.75781 69.6172 6.82812C69.6172 6.9401 69.5703 7.01953 69.4766 7.06641C69.1797 7.21224 68.8776 7.32943 68.5703 7.41797C68.263 7.50651 67.9661 7.55078 67.6797 7.55078C67.3854 7.55078 67.1107 7.49609 66.8555 7.38672C66.6029 7.27734 66.3867 7.09505 66.207 6.83984C66.1055 6.69661 66.0273 6.54427 65.9727 6.38281C65.918 6.22135 65.8906 6.04036 65.8906 5.83984C65.8906 5.7513 65.8958 5.65885 65.9062 5.5625C65.9661 5.0651 66.1732 4.63932 66.5273 4.28516C66.9857 3.82682 67.5885 3.59766 68.3359 3.59766C68.6224 3.59766 68.8737 3.65365 69.0898 3.76562C69.306 3.875 69.4596 4.03125 69.5508 4.23438C69.6003 4.34635 69.625 4.46484 69.625 4.58984C69.625 4.80339 69.569 4.99219 69.457 5.15625C69.3477 5.31771 69.1914 5.46745 68.9883 5.60547C68.418 5.99089 67.5911 6.18359 66.5078 6.18359C66.4922 6.18359 66.4714 6.18099 66.4453 6.17578ZM66.4023 5.69922C66.4388 5.68359 66.474 5.67578 66.5078 5.67578C67.4896 5.67578 68.2227 5.51172 68.707 5.18359C68.8424 5.09245 68.9453 5 69.0156 4.90625C69.0859 4.8099 69.1211 4.69922 69.1211 4.57422C69.1211 4.5013 69.1042 4.44271 69.0703 4.39844C69.0391 4.35417 68.9974 4.3125 68.9453 4.27344C68.7995 4.16146 68.5977 4.10547 68.3398 4.10547C67.9935 4.10547 67.6784 4.17057 67.3945 4.30078C67.1107 4.42839 66.8802 4.61198 66.7031 4.85156C66.5286 5.08854 66.4284 5.37109 66.4023 5.69922ZM70.6719 7.53125C70.599 7.53125 70.5365 7.49609 70.4844 7.42578C70.4323 7.35286 70.4062 7.28776 70.4062 7.23047C70.4062 7.18099 70.4141 7.13021 70.4297 7.07812C70.4479 7.02604 70.4583 6.97656 70.4609 6.92969C70.4688 6.78646 70.4831 6.59375 70.5039 6.35156C70.5247 6.10677 70.5352 5.86979 70.5352 5.64062C70.5352 5.47396 70.5326 5.29297 70.5273 5.09766C70.5117 4.52214 70.4883 4.17188 70.457 4.04688C70.444 3.99219 70.4375 3.94271 70.4375 3.89844C70.4375 3.82292 70.4583 3.76172 70.5 3.71484C70.5443 3.66536 70.6055 3.64062 70.6836 3.64062C70.7435 3.64062 70.7956 3.66016 70.8398 3.69922C70.8841 3.73828 70.9128 3.78255 70.9258 3.83203C70.9831 4.04818 71.0169 4.38021 71.0273 4.82812C71.4076 4.08073 71.9219 3.66667 72.5703 3.58594C72.5807 3.58594 72.5911 3.58594 72.6016 3.58594C72.6797 3.58594 72.7396 3.61458 72.7812 3.67188C72.8255 3.72656 72.8477 3.78646 72.8477 3.85156C72.8477 3.90885 72.8307 3.96094 72.7969 4.00781C72.763 4.05469 72.7083 4.08203 72.6328 4.08984C71.9714 4.17318 71.4844 4.76562 71.1719 5.86719C71.0964 6.13542 71.0391 6.41146 71 6.69531C70.9922 6.8125 70.9844 6.90495 70.9766 6.97266C70.9714 7.04036 70.9688 7.10417 70.9688 7.16406C70.9688 7.19792 70.9714 7.22526 70.9766 7.24609C70.9818 7.26693 70.9844 7.28516 70.9844 7.30078C70.9844 7.35807 70.9453 7.41146 70.8672 7.46094C70.7917 7.50781 70.7266 7.53125 70.6719 7.53125ZM74.6836 3.44922C75.332 3.48828 75.8633 3.80859 76.2773 4.41016C76.3893 4.57161 76.4753 4.7513 76.5352 4.94922C76.5951 5.14453 76.625 5.36198 76.625 5.60156C76.625 5.95833 76.5404 6.27865 76.3711 6.5625C76.2018 6.84375 75.9974 7.0612 75.7578 7.21484C75.6042 7.3138 75.431 7.39323 75.2383 7.45312C75.0456 7.51042 74.8464 7.53906 74.6406 7.53906C74.2578 7.53906 73.931 7.45573 73.6602 7.28906C73.3919 7.11979 73.1758 6.91016 73.0117 6.66016C72.7904 6.31641 72.6797 5.94792 72.6797 5.55469C72.6797 5.45052 72.6875 5.34505 72.7031 5.23828C72.776 4.72005 72.9935 4.29557 73.3555 3.96484C73.7201 3.63151 74.1315 3.45573 74.5898 3.4375C74.6211 3.43229 74.6523 3.4362 74.6836 3.44922ZM76.1133 5.57422C76.1133 5.27214 76.043 5.0026 75.9023 4.76562C75.7617 4.52604 75.5794 4.33594 75.3555 4.19531C75.1341 4.05208 74.901 3.97266 74.6562 3.95703C74.6354 3.95703 74.6146 3.95312 74.5938 3.94531C74.3281 3.96094 74.0885 4.04297 73.875 4.19141C73.6615 4.33724 73.4922 4.52995 73.3672 4.76953C73.2448 5.00651 73.1836 5.27083 73.1836 5.5625C73.1836 5.78646 73.2266 5.98958 73.3125 6.17188C73.401 6.35417 73.5143 6.51042 73.6523 6.64062C73.793 6.76823 73.9388 6.86328 74.0898 6.92578C74.2721 6.9987 74.4596 7.03516 74.6523 7.03516C74.9206 7.03516 75.1641 6.97266 75.3828 6.84766C75.6042 6.72005 75.7721 6.56641 75.8867 6.38672C75.9622 6.26693 76.0182 6.13802 76.0547 6C76.0938 5.85938 76.1133 5.71745 76.1133 5.57422ZM77.668 3.47656C77.7435 3.47656 77.806 3.50651 77.8555 3.56641C78.043 3.79297 78.1797 4.14193 78.2656 4.61328C78.6198 3.97266 79.0768 3.61198 79.6367 3.53125C79.7253 3.51823 79.8125 3.51172 79.8984 3.51172C80.2109 3.51172 80.487 3.58333 80.7266 3.72656C80.9661 3.86979 81.1628 4.05859 81.3164 4.29297C81.4701 4.52734 81.5742 4.77995 81.6289 5.05078C81.6654 5.22526 81.6836 5.40365 81.6836 5.58594C81.6836 6.16146 81.5 6.76953 81.1328 7.41016C81.0859 7.49089 81.0143 7.53125 80.918 7.53125C80.8372 7.53125 80.7643 7.49349 80.6992 7.41797C80.6367 7.33984 80.6341 7.2526 80.6914 7.15625C81.0143 6.59375 81.1758 6.06901 81.1758 5.58203C81.1758 5.4362 81.1615 5.29427 81.1328 5.15625C81.0911 4.95573 81.0143 4.76953 80.9023 4.59766C80.793 4.42578 80.6523 4.28776 80.4805 4.18359C80.3112 4.07682 80.1159 4.02344 79.8945 4.02344C79.8346 4.02344 79.7734 4.02734 79.7109 4.03516C79.4531 4.07161 79.2331 4.1849 79.0508 4.375C78.8685 4.5651 78.7214 4.79557 78.6094 5.06641C78.5 5.33464 78.4206 5.60807 78.3711 5.88672C78.3711 5.92057 78.3711 5.95443 78.3711 5.98828C78.3711 6.36328 78.3516 6.74089 78.3125 7.12109L78.2969 7.27344C78.2891 7.34635 78.2604 7.40104 78.2109 7.4375C78.1615 7.47135 78.1081 7.48828 78.0508 7.48828C77.9883 7.48828 77.9297 7.46875 77.875 7.42969C77.8229 7.39062 77.7956 7.33203 77.793 7.25391C77.7878 7.13672 77.7852 7.02214 77.7852 6.91016C77.7852 6.52734 77.8112 6.17448 77.8633 5.85156C77.8529 5.2526 77.806 4.80339 77.7227 4.50391C77.6419 4.20703 77.5677 4.01693 77.5 3.93359C77.4375 3.85547 77.4062 3.78646 77.4062 3.72656C77.4062 3.65104 77.4336 3.59115 77.4883 3.54688C77.543 3.5 77.6029 3.47656 77.668 3.47656ZM82.4688 2.75391C82.4688 2.65755 82.4974 2.5651 82.5547 2.47656C82.6146 2.38542 82.6875 2.3125 82.7734 2.25781C82.8594 2.20052 82.944 2.17188 83.0273 2.17188C83.1497 2.17188 83.2526 2.22396 83.3359 2.32812C83.4219 2.42969 83.4648 2.53125 83.4648 2.63281C83.4648 2.72917 83.4349 2.81771 83.375 2.89844C83.3151 2.97917 83.2344 3.03776 83.1328 3.07422C83.0182 3.13151 82.9167 3.16016 82.8281 3.16016C82.7318 3.16016 82.6471 3.12109 82.5742 3.04297C82.5039 2.96224 82.4688 2.86589 82.4688 2.75391ZM83.1016 6.86328C83.0938 7.07161 83.0651 7.23828 83.0156 7.36328C82.9661 7.48568 82.8802 7.54688 82.7578 7.54688C82.6901 7.54688 82.6302 7.52214 82.5781 7.47266C82.526 7.42318 82.5 7.36198 82.5 7.28906C82.5 7.25521 82.5065 7.22135 82.5195 7.1875C82.543 7.13281 82.5612 7.02474 82.5742 6.86328C82.5898 6.69922 82.6016 6.50651 82.6094 6.28516C82.6172 6.0638 82.6224 5.83594 82.625 5.60156C82.6302 5.36458 82.6328 5.14453 82.6328 4.94141C82.6328 4.73828 82.6328 4.57682 82.6328 4.45703C82.6328 4.23568 82.6315 4.02344 82.6289 3.82031C82.6289 3.73698 82.6549 3.67448 82.707 3.63281C82.7617 3.59115 82.8216 3.57031 82.8867 3.57031C82.9492 3.57031 83.0052 3.59115 83.0547 3.63281C83.1068 3.67188 83.1328 3.73177 83.1328 3.8125C83.1354 3.95052 83.1367 4.08594 83.1367 4.21875C83.1393 4.35156 83.1406 4.48177 83.1406 4.60938C83.1406 5.03385 83.138 5.41797 83.1328 5.76172C83.1302 6.10547 83.1198 6.47266 83.1016 6.86328ZM87.4023 7.53125C87.3451 7.53125 87.2878 7.50781 87.2305 7.46094C87.1758 7.41406 87.1484 7.36458 87.1484 7.3125C87.1484 7.18229 87.0339 7.02604 86.8047 6.84375C86.3047 6.45052 85.6536 6.07943 84.8516 5.73047C84.8255 5.72005 84.7969 5.70182 84.7656 5.67578C84.7578 6.00391 84.7539 6.28906 84.7539 6.53125C84.7539 6.91667 84.763 7.17057 84.7812 7.29297C84.7839 7.30859 84.7852 7.32292 84.7852 7.33594C84.7852 7.41406 84.7578 7.47396 84.7031 7.51562C84.6484 7.55729 84.5885 7.57812 84.5234 7.57812C84.4688 7.57812 84.4167 7.5612 84.3672 7.52734C84.3203 7.49349 84.2917 7.4401 84.2812 7.36719C84.2604 7.23438 84.25 6.96224 84.25 6.55078C84.25 5.67578 84.2956 4.17188 84.3867 2.03906C84.3893 1.96094 84.4167 1.90234 84.4688 1.86328C84.5208 1.82422 84.5781 1.80469 84.6406 1.80469C84.7031 1.80469 84.7604 1.82552 84.8125 1.86719C84.8646 1.90625 84.8906 1.96484 84.8906 2.04297C84.8906 2.04818 84.8906 2.05469 84.8906 2.0625C84.862 2.72917 84.8385 3.33464 84.8203 3.87891C84.8021 4.42057 84.7878 4.89974 84.7773 5.31641C84.7852 5.3112 84.7982 5.30208 84.8164 5.28906C84.8372 5.27344 84.8633 5.25651 84.8945 5.23828C85.3659 4.96745 85.7344 4.70312 86 4.44531C86.2708 4.18229 86.4062 3.98828 86.4062 3.86328C86.4062 3.79557 86.431 3.73698 86.4805 3.6875C86.5326 3.63542 86.5924 3.60938 86.6602 3.60938C86.7435 3.60938 86.806 3.63802 86.8477 3.69531C86.8919 3.7526 86.9141 3.82812 86.9141 3.92188C86.9141 4.14844 86.7409 4.43099 86.3945 4.76953C86.2227 4.9362 86.0677 5.06901 85.9297 5.16797C85.7943 5.26432 85.6484 5.36328 85.4922 5.46484C86.125 5.76693 86.6458 6.07812 87.0547 6.39844C87.4557 6.71354 87.6562 7.00651 87.6562 7.27734C87.6562 7.34505 87.6302 7.40495 87.5781 7.45703C87.5286 7.50651 87.4701 7.53125 87.4023 7.53125ZM91.2539 4.78516C91.2617 4.8138 91.2656 4.84375 91.2656 4.875C91.2656 4.9349 91.2539 5.00391 91.2305 5.08203C91.1914 5.49349 91.1719 5.86068 91.1719 6.18359C91.1719 6.63411 91.2096 7 91.2852 7.28125C91.293 7.30729 91.2969 7.33203 91.2969 7.35547C91.2969 7.42839 91.2682 7.48568 91.2109 7.52734C91.1562 7.57161 91.0964 7.59375 91.0312 7.59375C90.9818 7.59375 90.9349 7.57943 90.8906 7.55078C90.8464 7.52214 90.8151 7.47526 90.7969 7.41016C90.7161 7.11068 90.6732 6.73047 90.668 6.26953C90.4206 6.66797 90.1549 6.98177 89.8711 7.21094C89.6992 7.34896 89.5221 7.42708 89.3398 7.44531C89.2305 7.47656 89.1237 7.49219 89.0195 7.49219C88.8711 7.49219 88.7357 7.46484 88.6133 7.41016C88.4909 7.35547 88.3854 7.28646 88.2969 7.20312C88.138 7.05469 88.0143 6.86328 87.9258 6.62891C87.8398 6.39193 87.7969 6.11849 87.7969 5.80859C87.7969 5.41016 87.8893 5.02995 88.0742 4.66797C88.3451 4.13672 88.7565 3.78255 89.3086 3.60547C89.5195 3.53516 89.7227 3.5 89.918 3.5C90.1628 3.5 90.3932 3.55729 90.6094 3.67188C90.987 3.8724 91.2018 4.24349 91.2539 4.78516ZM90.7461 4.82031C90.7227 4.57031 90.6406 4.3724 90.5 4.22656C90.362 4.08073 90.1732 4.00781 89.9336 4.00781C89.7904 4.00781 89.6341 4.03516 89.4648 4.08984C89.0456 4.22266 88.7396 4.47917 88.5469 4.85938C88.3854 5.17969 88.3047 5.4987 88.3047 5.81641C88.3047 6.04036 88.3346 6.24089 88.3945 6.41797C88.4544 6.59505 88.5312 6.72786 88.625 6.81641C88.7422 6.92578 88.875 6.98047 89.0234 6.98047C89.0729 6.98047 89.1198 6.97526 89.1641 6.96484C89.2109 6.95182 89.263 6.94271 89.3203 6.9375C89.3646 6.93229 89.4518 6.87891 89.582 6.77734C89.7122 6.67318 89.8503 6.52604 89.9961 6.33594C90.1445 6.14583 90.2839 5.93229 90.4141 5.69531C90.5443 5.45833 90.6497 5.22005 90.7305 4.98047C90.7331 4.95443 90.7357 4.92839 90.7383 4.90234C90.7409 4.8737 90.7435 4.84635 90.7461 4.82031Z" fill="black" fill-opacity="0.2"/>
<path d="M29.232 10.3V21.5H28.192V10.3H29.232ZM32.864 15.74V16.22H29.184V15.74H32.864ZM33.552 10.3V10.796H29.184V10.3H33.552ZM32.864 16.188V17.244H32.704V17.004C32.704 16.7907 32.6293 16.6093 32.48 16.46C32.3307 16.3 32.1493 16.22 31.936 16.22V16.188H32.864ZM32.864 14.716V15.772H31.936V15.74C32.1493 15.7293 32.3307 15.6493 32.48 15.5C32.6293 15.34 32.704 15.1533 32.704 14.94V14.716H32.864ZM33.552 10.748V11.82H33.392V11.58C33.392 11.3667 33.312 11.1853 33.152 11.036C33.0027 10.876 32.8213 10.796 32.608 10.796V10.748H33.552ZM33.552 10.012V10.476L31.6 10.3C31.8347 10.3 32.08 10.284 32.336 10.252C32.6027 10.22 32.848 10.1827 33.072 10.14C33.296 10.0973 33.456 10.0547 33.552 10.012ZM28.24 20.332V21.5H26.96V21.34C26.96 21.34 26.992 21.34 27.056 21.34C27.1307 21.34 27.168 21.34 27.168 21.34C27.4453 21.34 27.68 21.244 27.872 21.052C28.0747 20.8493 28.1813 20.6093 28.192 20.332H28.24ZM28.24 11.468H28.192C28.192 11.1907 28.0907 10.956 27.888 10.764C27.6853 10.5613 27.4453 10.46 27.168 10.46C27.168 10.46 27.136 10.46 27.072 10.46C27.008 10.46 26.976 10.46 26.976 10.46L26.96 10.3H28.24V11.468ZM29.184 20.332H29.232C29.2427 20.6093 29.344 20.8493 29.536 21.052C29.7387 21.244 29.9787 21.34 30.256 21.34C30.256 21.34 30.288 21.34 30.352 21.34C30.416 21.34 30.4533 21.34 30.464 21.34V21.5H29.184V20.332ZM36.4316 11.9V21.5H35.4076V11.9H36.4316ZM40.7356 21.004L40.7036 21.5H36.3996V21.004H40.7356ZM41.6316 19.212L40.7516 21.5H38.3196L38.8636 21.004C39.397 21.004 39.8236 20.9293 40.1436 20.78C40.4743 20.62 40.741 20.4067 40.9436 20.14C41.1463 19.8627 41.3223 19.5533 41.4716 19.212H41.6316ZM35.4396 20.476L35.6476 21.5H34.2556V21.34C34.2556 21.34 34.293 21.34 34.3676 21.34C34.4423 21.34 34.4796 21.34 34.4796 21.34C34.7463 21.34 34.965 21.2547 35.1356 21.084C35.3063 20.9133 35.397 20.7107 35.4076 20.476H35.4396ZM36.3836 12.924V11.9H37.5676V12.06C37.5676 12.06 37.5356 12.06 37.4716 12.06C37.4076 12.06 37.3756 12.06 37.3756 12.06C37.1196 12.06 36.8956 12.1453 36.7036 12.316C36.5223 12.476 36.4316 12.6787 36.4316 12.924H36.3836ZM35.4396 12.924H35.4076C35.397 12.6787 35.301 12.476 35.1196 12.316C34.9383 12.1453 34.7143 12.06 34.4476 12.06C34.4476 12.06 34.4156 12.06 34.3516 12.06C34.2876 12.06 34.2556 12.06 34.2556 12.06V11.9H35.4396V12.924ZM47.4276 11.676C48.1743 11.676 48.873 11.7987 49.5236 12.044C50.185 12.2787 50.761 12.62 51.2516 13.068C51.753 13.516 52.1423 14.0493 52.4196 14.668C52.697 15.276 52.8356 15.9533 52.8356 16.7C52.8356 17.4467 52.697 18.1293 52.4196 18.748C52.1423 19.356 51.753 19.884 51.2516 20.332C50.761 20.78 50.185 21.1267 49.5236 21.372C48.873 21.6067 48.1743 21.724 47.4276 21.724C46.681 21.724 45.9823 21.6067 45.3316 21.372C44.681 21.1267 44.105 20.78 43.6036 20.332C43.113 19.884 42.729 19.356 42.4516 18.748C42.1743 18.1293 42.0356 17.4467 42.0356 16.7C42.0356 15.9533 42.1743 15.276 42.4516 14.668C42.729 14.0493 43.113 13.516 43.6036 13.068C44.105 12.62 44.681 12.2787 45.3316 12.044C45.9823 11.7987 46.681 11.676 47.4276 11.676ZM47.4276 21.244C48.217 21.244 48.9316 21.052 49.5716 20.668C50.2116 20.284 50.7183 19.7507 51.0916 19.068C51.465 18.3853 51.6516 17.596 51.6516 16.7C51.6516 15.7933 51.465 15.004 51.0916 14.332C50.7183 13.6493 50.2116 13.116 49.5716 12.732C48.9316 12.348 48.217 12.156 47.4276 12.156C46.649 12.156 45.9396 12.348 45.2996 12.732C44.6596 13.116 44.153 13.6493 43.7796 14.332C43.4063 15.004 43.2196 15.7933 43.2196 16.7C43.2196 17.596 43.4063 18.3853 43.7796 19.068C44.153 19.7507 44.6596 20.284 45.2996 20.668C45.9396 21.052 46.649 21.244 47.4276 21.244ZM53.742 11.996H55.022L57.614 19.884L57.47 21.692L53.742 11.996ZM60.318 11.644L60.446 12.94L57.966 19.916C57.966 19.916 57.9393 20.012 57.886 20.204C57.8327 20.3853 57.774 20.6147 57.71 20.892C57.6567 21.1587 57.6247 21.4253 57.614 21.692H57.47L57.166 20.268L60.158 11.644H60.318ZM60.318 11.66L63.39 19.484L63.022 21.692L59.774 13.388L60.318 11.66ZM66.206 11.996L63.55 19.916C63.55 19.916 63.518 20.012 63.454 20.204C63.4007 20.396 63.342 20.6307 63.278 20.908C63.2247 21.1747 63.1927 21.436 63.182 21.692H63.022L62.83 20.108L65.294 11.996H66.206ZM64.974 13.02C65.0913 12.6787 65.0807 12.4333 64.942 12.284C64.814 12.1347 64.6647 12.06 64.494 12.06H64.366V11.9H67.294V12.06C67.294 12.06 67.2727 12.06 67.23 12.06C67.198 12.06 67.182 12.06 67.182 12.06C66.8513 12.06 66.574 12.1507 66.35 12.332C66.126 12.5133 65.966 12.7427 65.87 13.02H64.974ZM55.358 13.004L54.142 13.02C54.0353 12.7427 53.8753 12.5133 53.662 12.332C53.4487 12.1507 53.1713 12.06 52.83 12.06C52.83 12.06 52.8087 12.06 52.766 12.06C52.7233 12.06 52.702 12.06 52.702 12.06V11.9H55.998V12.06H55.87C55.6993 12.06 55.5447 12.1347 55.406 12.284C55.2673 12.4227 55.2513 12.6627 55.358 13.004ZM69.6366 11.9V21.5H68.6126V11.9H69.6366ZM73.9406 21.004L73.9086 21.5H69.6046V21.004H73.9406ZM73.1886 16.46V16.94H69.6046V16.46H73.1886ZM73.9246 11.9V12.396H69.6046V11.9H73.9246ZM74.8366 19.212L73.9566 21.5H71.5246L72.0686 21.004C72.602 21.004 73.0286 20.9293 73.3486 20.78C73.6793 20.62 73.946 20.4067 74.1486 20.14C74.3513 19.8627 74.5273 19.5533 74.6766 19.212H74.8366ZM73.1886 16.908V17.82H73.0126V17.612C73.0126 17.4307 72.9593 17.276 72.8526 17.148C72.746 17.0093 72.5806 16.94 72.3566 16.94V16.908H73.1886ZM73.1886 15.58V16.492H72.3566V16.46C72.5806 16.46 72.746 16.396 72.8526 16.268C72.9593 16.1293 73.0126 15.9693 73.0126 15.788V15.58H73.1886ZM73.9246 12.348V13.452H73.7486V13.212C73.7486 12.988 73.674 12.796 73.5246 12.636C73.386 12.476 73.194 12.396 72.9486 12.396V12.348H73.9246ZM73.9246 11.644V12.06L72.1006 11.9C72.4313 11.9 72.7833 11.8733 73.1566 11.82C73.53 11.756 73.786 11.6973 73.9246 11.644ZM68.6446 20.476L68.8526 21.5H67.4606V21.34C67.4606 21.34 67.498 21.34 67.5726 21.34C67.6473 21.34 67.6846 21.34 67.6846 21.34C67.9513 21.34 68.17 21.2547 68.3406 21.084C68.5113 20.9133 68.602 20.7107 68.6126 20.476H68.6446ZM68.6446 12.908H68.6126C68.602 12.6627 68.5113 12.46 68.3406 12.3C68.17 12.14 67.9513 12.06 67.6846 12.06C67.6846 12.06 67.6473 12.06 67.5726 12.06C67.498 12.06 67.4606 12.06 67.4606 12.06V11.9H68.8526L68.6446 12.908ZM77.3507 11.9H79.4147C79.9161 11.9 80.3641 11.9587 80.7587 12.076C81.1641 12.1933 81.5054 12.364 81.7827 12.588C82.0707 12.812 82.2894 13.084 82.4387 13.404C82.5881 13.724 82.6627 14.0867 82.6627 14.492C82.6627 14.94 82.5561 15.356 82.3427 15.74C82.1294 16.124 81.8307 16.4387 81.4467 16.684C81.0734 16.9293 80.6467 17.0787 80.1667 17.132C80.3481 17.2067 80.5561 17.372 80.7907 17.628C81.0361 17.884 81.2441 18.1347 81.4147 18.38C81.4147 18.38 81.4841 18.476 81.6227 18.668C81.7614 18.8493 81.9374 19.0787 82.1507 19.356C82.3747 19.6227 82.5934 19.8787 82.8067 20.124C83.0307 20.3693 83.2334 20.5827 83.4148 20.764C83.6067 20.9453 83.8094 21.0893 84.0227 21.196C84.2467 21.292 84.5027 21.34 84.7907 21.34V21.5H84.2947C83.7081 21.5 83.2228 21.4253 82.8387 21.276C82.4654 21.1267 82.1614 20.9453 81.9267 20.732C81.6921 20.508 81.4894 20.2947 81.3187 20.092C81.2761 20.0387 81.1747 19.9053 81.0147 19.692C80.8654 19.468 80.7001 19.228 80.5187 18.972C80.3374 18.716 80.1721 18.4867 80.0227 18.284C79.8734 18.0707 79.7827 17.9427 79.7507 17.9C79.5374 17.6227 79.2921 17.3773 79.0147 17.164C78.7374 16.94 78.4441 16.828 78.1347 16.828V16.668C78.1347 16.668 78.2201 16.6733 78.3907 16.684C78.5614 16.684 78.7801 16.6787 79.0467 16.668C79.3454 16.6573 79.6441 16.636 79.9427 16.604C80.2414 16.5613 80.5187 16.444 80.7747 16.252C81.0414 16.06 81.2494 15.74 81.3987 15.292C81.4414 15.1747 81.4734 15.036 81.4947 14.876C81.5161 14.716 81.5214 14.5507 81.5107 14.38C81.5001 14.0813 81.4414 13.8147 81.3347 13.58C81.2387 13.3453 81.0947 13.1427 80.9027 12.972C80.7214 12.8013 80.5027 12.668 80.2467 12.572C79.9907 12.476 79.7027 12.4227 79.3827 12.412C78.8814 12.3907 78.4441 12.3853 78.0707 12.396C77.6974 12.4067 77.5107 12.4067 77.5107 12.396C77.5107 12.3853 77.4947 12.3427 77.4627 12.268C77.4414 12.1827 77.4147 12.1027 77.3827 12.028C77.3614 11.9427 77.3507 11.9 77.3507 11.9ZM77.5427 11.9V21.5H76.5187V11.9H77.5427ZM76.5667 20.476L76.7587 21.5H75.3987V21.34C75.3987 21.34 75.4361 21.34 75.5107 21.34C75.5854 21.34 75.6227 21.34 75.6227 21.34C75.8787 21.34 76.0921 21.2547 76.2627 21.084C76.4334 20.9133 76.5241 20.7107 76.5347 20.476H76.5667ZM76.5667 12.908H76.5347C76.5241 12.6627 76.4334 12.46 76.2627 12.3C76.0921 12.14 75.8787 12.06 75.6227 12.06C75.6227 12.06 75.5854 12.06 75.5107 12.06C75.4361 12.06 75.3987 12.06 75.3987 12.06V11.9H76.7587L76.5667 12.908ZM77.4947 20.476H77.5427C77.5534 20.7107 77.6441 20.9133 77.8147 21.084C77.9854 21.2547 78.1987 21.34 78.4547 21.34C78.4547 21.34 78.4867 21.34 78.5507 21.34C78.6254 21.34 78.6627 21.34 78.6627 21.34L78.6787 21.5H77.3027L77.4947 20.476ZM87.654 11.676C87.9527 11.676 88.214 11.6867 88.438 11.708C88.662 11.7293 88.854 11.756 89.014 11.788C89.1847 11.8093 89.3287 11.8413 89.446 11.884C89.574 11.916 89.686 11.948 89.782 11.98L89.798 13.564H89.606C89.606 13.1267 89.4567 12.7853 89.158 12.54C88.8593 12.284 88.3953 12.156 87.766 12.156C87.2327 12.156 86.774 12.3053 86.39 12.604C86.0167 12.892 85.8353 13.2493 85.846 13.676C85.846 13.8147 85.862 13.9587 85.894 14.108C85.9367 14.2467 86.0007 14.3853 86.086 14.524C86.182 14.6627 86.31 14.8013 86.47 14.94L89.702 17.436C89.9473 17.6387 90.1287 17.9 90.246 18.22C90.3633 18.5293 90.4273 18.8387 90.438 19.148C90.4487 19.6173 90.326 20.0493 90.07 20.444C89.814 20.8387 89.4673 21.1533 89.03 21.388C88.6033 21.612 88.1287 21.724 87.606 21.724C87.2967 21.724 86.9607 21.6973 86.598 21.644C86.246 21.5907 85.9153 21.5107 85.606 21.404C85.2967 21.2867 85.0407 21.1427 84.838 20.972C84.806 20.8227 84.79 20.636 84.79 20.412C84.79 20.1773 84.806 19.932 84.838 19.676C84.8807 19.42 84.934 19.1907 84.998 18.988H85.19C85.1473 19.468 85.2167 19.8787 85.398 20.22C85.5793 20.5613 85.846 20.8227 86.198 21.004C86.55 21.1747 86.9607 21.2547 87.43 21.244C88.0913 21.2227 88.6087 21.0573 88.982 20.748C89.366 20.428 89.558 20.0067 89.558 19.484C89.558 19.228 89.51 18.9987 89.414 18.796C89.3287 18.5827 89.1847 18.3853 88.982 18.204L85.782 15.74C85.4833 15.484 85.2807 15.2013 85.174 14.892C85.0673 14.5827 85.014 14.2893 85.014 14.012C85.014 13.5747 85.1313 13.18 85.366 12.828C85.6007 12.476 85.9153 12.1987 86.31 11.996C86.7153 11.7827 87.1633 11.676 87.654 11.676ZM89.766 11.82L89.782 12.108H88.646V11.82H89.766Z" fill="black"/>
<path d="M29.232 10.3V21.5H28.192V10.3H29.232ZM32.864 15.74V16.22H29.184V15.74H32.864ZM33.552 10.3V10.796H29.184V10.3H33.552ZM32.864 16.188V17.244H32.704V17.004C32.704 16.7907 32.6293 16.6093 32.48 16.46C32.3307 16.3 32.1493 16.22 31.936 16.22V16.188H32.864ZM32.864 14.716V15.772H31.936V15.74C32.1493 15.7293 32.3307 15.6493 32.48 15.5C32.6293 15.34 32.704 15.1533 32.704 14.94V14.716H32.864ZM33.552 10.748V11.82H33.392V11.58C33.392 11.3667 33.312 11.1853 33.152 11.036C33.0027 10.876 32.8213 10.796 32.608 10.796V10.748H33.552ZM33.552 10.012V10.476L31.6 10.3C31.8347 10.3 32.08 10.284 32.336 10.252C32.6027 10.22 32.848 10.1827 33.072 10.14C33.296 10.0973 33.456 10.0547 33.552 10.012ZM28.24 20.332V21.5H26.96V21.34C26.96 21.34 26.992 21.34 27.056 21.34C27.1307 21.34 27.168 21.34 27.168 21.34C27.4453 21.34 27.68 21.244 27.872 21.052C28.0747 20.8493 28.1813 20.6093 28.192 20.332H28.24ZM28.24 11.468H28.192C28.192 11.1907 28.0907 10.956 27.888 10.764C27.6853 10.5613 27.4453 10.46 27.168 10.46C27.168 10.46 27.136 10.46 27.072 10.46C27.008 10.46 26.976 10.46 26.976 10.46L26.96 10.3H28.24V11.468ZM29.184 20.332H29.232C29.2427 20.6093 29.344 20.8493 29.536 21.052C29.7387 21.244 29.9787 21.34 30.256 21.34C30.256 21.34 30.288 21.34 30.352 21.34C30.416 21.34 30.4533 21.34 30.464 21.34V21.5H29.184V20.332ZM36.4316 11.9V21.5H35.4076V11.9H36.4316ZM40.7356 21.004L40.7036 21.5H36.3996V21.004H40.7356ZM41.6316 19.212L40.7516 21.5H38.3196L38.8636 21.004C39.397 21.004 39.8236 20.9293 40.1436 20.78C40.4743 20.62 40.741 20.4067 40.9436 20.14C41.1463 19.8627 41.3223 19.5533 41.4716 19.212H41.6316ZM35.4396 20.476L35.6476 21.5H34.2556V21.34C34.2556 21.34 34.293 21.34 34.3676 21.34C34.4423 21.34 34.4796 21.34 34.4796 21.34C34.7463 21.34 34.965 21.2547 35.1356 21.084C35.3063 20.9133 35.397 20.7107 35.4076 20.476H35.4396ZM36.3836 12.924V11.9H37.5676V12.06C37.5676 12.06 37.5356 12.06 37.4716 12.06C37.4076 12.06 37.3756 12.06 37.3756 12.06C37.1196 12.06 36.8956 12.1453 36.7036 12.316C36.5223 12.476 36.4316 12.6787 36.4316 12.924H36.3836ZM35.4396 12.924H35.4076C35.397 12.6787 35.301 12.476 35.1196 12.316C34.9383 12.1453 34.7143 12.06 34.4476 12.06C34.4476 12.06 34.4156 12.06 34.3516 12.06C34.2876 12.06 34.2556 12.06 34.2556 12.06V11.9H35.4396V12.924ZM47.4276 11.676C48.1743 11.676 48.873 11.7987 49.5236 12.044C50.185 12.2787 50.761 12.62 51.2516 13.068C51.753 13.516 52.1423 14.0493 52.4196 14.668C52.697 15.276 52.8356 15.9533 52.8356 16.7C52.8356 17.4467 52.697 18.1293 52.4196 18.748C52.1423 19.356 51.753 19.884 51.2516 20.332C50.761 20.78 50.185 21.1267 49.5236 21.372C48.873 21.6067 48.1743 21.724 47.4276 21.724C46.681 21.724 45.9823 21.6067 45.3316 21.372C44.681 21.1267 44.105 20.78 43.6036 20.332C43.113 19.884 42.729 19.356 42.4516 18.748C42.1743 18.1293 42.0356 17.4467 42.0356 16.7C42.0356 15.9533 42.1743 15.276 42.4516 14.668C42.729 14.0493 43.113 13.516 43.6036 13.068C44.105 12.62 44.681 12.2787 45.3316 12.044C45.9823 11.7987 46.681 11.676 47.4276 11.676ZM47.4276 21.244C48.217 21.244 48.9316 21.052 49.5716 20.668C50.2116 20.284 50.7183 19.7507 51.0916 19.068C51.465 18.3853 51.6516 17.596 51.6516 16.7C51.6516 15.7933 51.465 15.004 51.0916 14.332C50.7183 13.6493 50.2116 13.116 49.5716 12.732C48.9316 12.348 48.217 12.156 47.4276 12.156C46.649 12.156 45.9396 12.348 45.2996 12.732C44.6596 13.116 44.153 13.6493 43.7796 14.332C43.4063 15.004 43.2196 15.7933 43.2196 16.7C43.2196 17.596 43.4063 18.3853 43.7796 19.068C44.153 19.7507 44.6596 20.284 45.2996 20.668C45.9396 21.052 46.649 21.244 47.4276 21.244ZM53.742 11.996H55.022L57.614 19.884L57.47 21.692L53.742 11.996ZM60.318 11.644L60.446 12.94L57.966 19.916C57.966 19.916 57.9393 20.012 57.886 20.204C57.8327 20.3853 57.774 20.6147 57.71 20.892C57.6567 21.1587 57.6247 21.4253 57.614 21.692H57.47L57.166 20.268L60.158 11.644H60.318ZM60.318 11.66L63.39 19.484L63.022 21.692L59.774 13.388L60.318 11.66ZM66.206 11.996L63.55 19.916C63.55 19.916 63.518 20.012 63.454 20.204C63.4007 20.396 63.342 20.6307 63.278 20.908C63.2247 21.1747 63.1927 21.436 63.182 21.692H63.022L62.83 20.108L65.294 11.996H66.206ZM64.974 13.02C65.0913 12.6787 65.0807 12.4333 64.942 12.284C64.814 12.1347 64.6647 12.06 64.494 12.06H64.366V11.9H67.294V12.06C67.294 12.06 67.2727 12.06 67.23 12.06C67.198 12.06 67.182 12.06 67.182 12.06C66.8513 12.06 66.574 12.1507 66.35 12.332C66.126 12.5133 65.966 12.7427 65.87 13.02H64.974ZM55.358 13.004L54.142 13.02C54.0353 12.7427 53.8753 12.5133 53.662 12.332C53.4487 12.1507 53.1713 12.06 52.83 12.06C52.83 12.06 52.8087 12.06 52.766 12.06C52.7233 12.06 52.702 12.06 52.702 12.06V11.9H55.998V12.06H55.87C55.6993 12.06 55.5447 12.1347 55.406 12.284C55.2673 12.4227 55.2513 12.6627 55.358 13.004ZM69.6366 11.9V21.5H68.6126V11.9H69.6366ZM73.9406 21.004L73.9086 21.5H69.6046V21.004H73.9406ZM73.1886 16.46V16.94H69.6046V16.46H73.1886ZM73.9246 11.9V12.396H69.6046V11.9H73.9246ZM74.8366 19.212L73.9566 21.5H71.5246L72.0686 21.004C72.602 21.004 73.0286 20.9293 73.3486 20.78C73.6793 20.62 73.946 20.4067 74.1486 20.14C74.3513 19.8627 74.5273 19.5533 74.6766 19.212H74.8366ZM73.1886 16.908V17.82H73.0126V17.612C73.0126 17.4307 72.9593 17.276 72.8526 17.148C72.746 17.0093 72.5806 16.94 72.3566 16.94V16.908H73.1886ZM73.1886 15.58V16.492H72.3566V16.46C72.5806 16.46 72.746 16.396 72.8526 16.268C72.9593 16.1293 73.0126 15.9693 73.0126 15.788V15.58H73.1886ZM73.9246 12.348V13.452H73.7486V13.212C73.7486 12.988 73.674 12.796 73.5246 12.636C73.386 12.476 73.194 12.396 72.9486 12.396V12.348H73.9246ZM73.9246 11.644V12.06L72.1006 11.9C72.4313 11.9 72.7833 11.8733 73.1566 11.82C73.53 11.756 73.786 11.6973 73.9246 11.644ZM68.6446 20.476L68.8526 21.5H67.4606V21.34C67.4606 21.34 67.498 21.34 67.5726 21.34C67.6473 21.34 67.6846 21.34 67.6846 21.34C67.9513 21.34 68.17 21.2547 68.3406 21.084C68.5113 20.9133 68.602 20.7107 68.6126 20.476H68.6446ZM68.6446 12.908H68.6126C68.602 12.6627 68.5113 12.46 68.3406 12.3C68.17 12.14 67.9513 12.06 67.6846 12.06C67.6846 12.06 67.6473 12.06 67.5726 12.06C67.498 12.06 67.4606 12.06 67.4606 12.06V11.9H68.8526L68.6446 12.908ZM77.3507 11.9H79.4147C79.9161 11.9 80.3641 11.9587 80.7587 12.076C81.1641 12.1933 81.5054 12.364 81.7827 12.588C82.0707 12.812 82.2894 13.084 82.4387 13.404C82.5881 13.724 82.6627 14.0867 82.6627 14.492C82.6627 14.94 82.5561 15.356 82.3427 15.74C82.1294 16.124 81.8307 16.4387 81.4467 16.684C81.0734 16.9293 80.6467 17.0787 80.1667 17.132C80.3481 17.2067 80.5561 17.372 80.7907 17.628C81.0361 17.884 81.2441 18.1347 81.4147 18.38C81.4147 18.38 81.4841 18.476 81.6227 18.668C81.7614 18.8493 81.9374 19.0787 82.1507 19.356C82.3747 19.6227 82.5934 19.8787 82.8067 20.124C83.0307 20.3693 83.2334 20.5827 83.4148 20.764C83.6067 20.9453 83.8094 21.0893 84.0227 21.196C84.2467 21.292 84.5027 21.34 84.7907 21.34V21.5H84.2947C83.7081 21.5 83.2228 21.4253 82.8387 21.276C82.4654 21.1267 82.1614 20.9453 81.9267 20.732C81.6921 20.508 81.4894 20.2947 81.3187 20.092C81.2761 20.0387 81.1747 19.9053 81.0147 19.692C80.8654 19.468 80.7001 19.228 80.5187 18.972C80.3374 18.716 80.1721 18.4867 80.0227 18.284C79.8734 18.0707 79.7827 17.9427 79.7507 17.9C79.5374 17.6227 79.2921 17.3773 79.0147 17.164C78.7374 16.94 78.4441 16.828 78.1347 16.828V16.668C78.1347 16.668 78.2201 16.6733 78.3907 16.684C78.5614 16.684 78.7801 16.6787 79.0467 16.668C79.3454 16.6573 79.6441 16.636 79.9427 16.604C80.2414 16.5613 80.5187 16.444 80.7747 16.252C81.0414 16.06 81.2494 15.74 81.3987 15.292C81.4414 15.1747 81.4734 15.036 81.4947 14.876C81.5161 14.716 81.5214 14.5507 81.5107 14.38C81.5001 14.0813 81.4414 13.8147 81.3347 13.58C81.2387 13.3453 81.0947 13.1427 80.9027 12.972C80.7214 12.8013 80.5027 12.668 80.2467 12.572C79.9907 12.476 79.7027 12.4227 79.3827 12.412C78.8814 12.3907 78.4441 12.3853 78.0707 12.396C77.6974 12.4067 77.5107 12.4067 77.5107 12.396C77.5107 12.3853 77.4947 12.3427 77.4627 12.268C77.4414 12.1827 77.4147 12.1027 77.3827 12.028C77.3614 11.9427 77.3507 11.9 77.3507 11.9ZM77.5427 11.9V21.5H76.5187V11.9H77.5427ZM76.5667 20.476L76.7587 21.5H75.3987V21.34C75.3987 21.34 75.4361 21.34 75.5107 21.34C75.5854 21.34 75.6227 21.34 75.6227 21.34C75.8787 21.34 76.0921 21.2547 76.2627 21.084C76.4334 20.9133 76.5241 20.7107 76.5347 20.476H76.5667ZM76.5667 12.908H76.5347C76.5241 12.6627 76.4334 12.46 76.2627 12.3C76.0921 12.14 75.8787 12.06 75.6227 12.06C75.6227 12.06 75.5854 12.06 75.5107 12.06C75.4361 12.06 75.3987 12.06 75.3987 12.06V11.9H76.7587L76.5667 12.908ZM77.4947 20.476H77.5427C77.5534 20.7107 77.6441 20.9133 77.8147 21.084C77.9854 21.2547 78.1987 21.34 78.4547 21.34C78.4547 21.34 78.4867 21.34 78.5507 21.34C78.6254 21.34 78.6627 21.34 78.6627 21.34L78.6787 21.5H77.3027L77.4947 20.476ZM87.654 11.676C87.9527 11.676 88.214 11.6867 88.438 11.708C88.662 11.7293 88.854 11.756 89.014 11.788C89.1847 11.8093 89.3287 11.8413 89.446 11.884C89.574 11.916 89.686 11.948 89.782 11.98L89.798 13.564H89.606C89.606 13.1267 89.4567 12.7853 89.158 12.54C88.8593 12.284 88.3953 12.156 87.766 12.156C87.2327 12.156 86.774 12.3053 86.39 12.604C86.0167 12.892 85.8353 13.2493 85.846 13.676C85.846 13.8147 85.862 13.9587 85.894 14.108C85.9367 14.2467 86.0007 14.3853 86.086 14.524C86.182 14.6627 86.31 14.8013 86.47 14.94L89.702 17.436C89.9473 17.6387 90.1287 17.9 90.246 18.22C90.3633 18.5293 90.4273 18.8387 90.438 19.148C90.4487 19.6173 90.326 20.0493 90.07 20.444C89.814 20.8387 89.4673 21.1533 89.03 21.388C88.6033 21.612 88.1287 21.724 87.606 21.724C87.2967 21.724 86.9607 21.6973 86.598 21.644C86.246 21.5907 85.9153 21.5107 85.606 21.404C85.2967 21.2867 85.0407 21.1427 84.838 20.972C84.806 20.8227 84.79 20.636 84.79 20.412C84.79 20.1773 84.806 19.932 84.838 19.676C84.8807 19.42 84.934 19.1907 84.998 18.988H85.19C85.1473 19.468 85.2167 19.8787 85.398 20.22C85.5793 20.5613 85.846 20.8227 86.198 21.004C86.55 21.1747 86.9607 21.2547 87.43 21.244C88.0913 21.2227 88.6087 21.0573 88.982 20.748C89.366 20.428 89.558 20.0067 89.558 19.484C89.558 19.228 89.51 18.9987 89.414 18.796C89.3287 18.5827 89.1847 18.3853 88.982 18.204L85.782 15.74C85.4833 15.484 85.2807 15.2013 85.174 14.892C85.0673 14.5827 85.014 14.2893 85.014 14.012C85.014 13.5747 85.1313 13.18 85.366 12.828C85.6007 12.476 85.9153 12.1987 86.31 11.996C86.7153 11.7827 87.1633 11.676 87.654 11.676ZM89.766 11.82L89.782 12.108H88.646V11.82H89.766Z" fill="black" fill-opacity="0.2"/>
<path d="M13.5353 19.1055C12.7706 16.7731 11.3176 14.7849 10.2853 12.6055C8.44999 8.74369 7.99117 4.4231 7.57058 0.255455C7.53235 -0.0504275 7.14999 -0.0886628 7.03529 0.178984C5.42941 4.15545 4.54999 8.55251 5.19999 12.7966C6.19411 19.526 10.8971 24.076 14.2618 24.9172C14.3382 24.9555 14.4529 25.0319 14.5294 25.0702C14.5676 25.1849 14.6823 25.2613 14.7971 25.2613C14.8353 25.2613 14.95 25.2231 14.9882 25.2231C15.7529 25.1084 16.5941 24.2672 17.1676 23.7702C21.6412 19.679 20.8382 12.6437 21.0294 10.8084C21.0294 10.6555 20.9529 10.5025 20.7618 10.5025C20.6088 10.4643 20.4559 10.579 20.4559 10.7702C19.9588 14.9378 15.9823 18.0349 14.7206 21.6672C14.4529 18.1113 14.7206 14.479 15.4853 11.879C15.7529 11.9555 16.0588 11.9555 16.3647 11.9172C17.0912 11.8025 17.7794 11.4584 18.3529 10.9996C19.5765 10.2349 20.4176 9.01134 20.6853 7.48192C20.9912 5.87604 20.6853 4.07898 19.8441 2.12898C19.7676 1.93781 19.6529 1.74663 19.5 1.55545C19.2706 1.28781 18.9647 1.1731 18.6588 1.36428C18.3147 0.140749 16.7853 0.102514 15.6 0.484867C14.9882 0.714278 14.4912 1.1731 14.2618 1.7084C13.5735 0.752513 12.9235 1.28781 12.2353 2.28192C11.3941 3.31428 11.1265 4.65251 11.05 5.99075C11.0118 6.94663 11.05 7.90251 11.3559 8.78192C11.7382 10.0055 12.4265 10.6555 13.0765 10.8849C13.3823 11.0378 13.4206 11.0378 13.7647 11.1907C14.1471 11.4584 14.6059 11.6496 14.9882 11.726C14.2235 14.326 13.9559 17.9584 14.1853 21.5525C13.9559 20.7113 13.8029 19.9084 13.5353 19.1055ZM14.7206 4.07898C15.2559 3.16134 15.7529 2.32016 16.6706 1.78487C17.2059 1.47898 17.6265 1.44075 17.9706 1.93781C18.2765 2.43487 18.8882 3.88781 19.1176 5.11134C19.4618 7.13781 19.1176 9.96722 17.1676 10.9231C17.1676 10.9231 17.1294 10.9231 17.1294 10.9613C16.5176 11.229 15.8294 11.3055 15.1794 11.1525C14.5294 10.9996 13.6882 10.5407 13.4588 9.96722C13.1912 9.35545 13.1529 8.55251 13.3441 7.6731C13.7265 5.64663 14.6823 4.11722 14.7206 4.07898ZM18.9265 1.78487C18.9265 1.78487 18.9647 1.78487 19.0794 1.89957C19.1941 2.01428 19.2706 2.16722 19.3088 2.32016C20.3412 4.61428 20.7235 7.29075 19.2706 9.31722C19.9971 7.52016 20.0353 4.9584 18.6971 2.12898C18.7735 1.97604 18.8882 1.8231 18.9265 1.78487ZM15.7529 0.981925C16.4029 0.752514 17.5118 0.637808 17.9323 1.1731C17.4353 0.867219 16.9 0.981925 16.3647 1.28781C15.7147 1.67016 15.2176 2.20545 14.8353 2.77898C14.7971 2.66428 14.7206 2.51134 14.6441 2.39663C14.6441 1.78487 15.1029 1.21134 15.7529 0.981925ZM13.8029 2.01428C14.0706 2.43487 14.3 2.89369 14.4912 3.39075C13.7265 4.65251 13.1147 5.87604 12.7706 7.5584C12.5794 8.51428 12.6176 9.39369 12.8853 10.1202C11.1647 8.82016 11.1265 4.11722 13.1912 1.93781C13.3823 1.74663 13.4588 1.7084 13.4971 1.7084C13.5735 1.74663 13.6882 1.8231 13.8029 2.01428ZM20.4176 13.179V13.829C20.2265 17.3849 19.4235 20.9407 16.8235 23.3496C16.4029 23.7319 15.7529 24.3819 15.2176 24.5731C15.2176 24.5349 15.1794 24.5349 15.1794 24.4966C15.1412 24.4584 15.1412 24.3819 15.1029 24.3437C15.0647 24.1525 15.0265 23.9613 15.0265 23.7702C14.9118 20.1378 18.7735 17.1555 20.4176 13.179ZM14.4529 24.3437C14.0706 24.1143 13.65 23.8466 13.2294 23.579C7.07352 19.8702 3.59411 11.3437 7.11176 1.47898C7.99117 9.43192 9.1 11.8025 11.05 15.2437C12.7706 18.2643 12.9618 19.029 13.4588 20.9407C13.6882 21.8202 13.8029 22.2407 14.0323 22.8907C14.1088 23.1966 14.2235 23.8849 14.4529 24.3437Z" fill="black"/>
<path d="M13.5353 19.1055C12.7706 16.7731 11.3176 14.7849 10.2853 12.6055C8.44999 8.74369 7.99117 4.4231 7.57058 0.255455C7.53235 -0.0504275 7.14999 -0.0886628 7.03529 0.178984C5.42941 4.15545 4.54999 8.55251 5.19999 12.7966C6.19411 19.526 10.8971 24.076 14.2618 24.9172C14.3382 24.9555 14.4529 25.0319 14.5294 25.0702C14.5676 25.1849 14.6823 25.2613 14.7971 25.2613C14.8353 25.2613 14.95 25.2231 14.9882 25.2231C15.7529 25.1084 16.5941 24.2672 17.1676 23.7702C21.6412 19.679 20.8382 12.6437 21.0294 10.8084C21.0294 10.6555 20.9529 10.5025 20.7618 10.5025C20.6088 10.4643 20.4559 10.579 20.4559 10.7702C19.9588 14.9378 15.9823 18.0349 14.7206 21.6672C14.4529 18.1113 14.7206 14.479 15.4853 11.879C15.7529 11.9555 16.0588 11.9555 16.3647 11.9172C17.0912 11.8025 17.7794 11.4584 18.3529 10.9996C19.5765 10.2349 20.4176 9.01134 20.6853 7.48192C20.9912 5.87604 20.6853 4.07898 19.8441 2.12898C19.7676 1.93781 19.6529 1.74663 19.5 1.55545C19.2706 1.28781 18.9647 1.1731 18.6588 1.36428C18.3147 0.140749 16.7853 0.102514 15.6 0.484867C14.9882 0.714278 14.4912 1.1731 14.2618 1.7084C13.5735 0.752513 12.9235 1.28781 12.2353 2.28192C11.3941 3.31428 11.1265 4.65251 11.05 5.99075C11.0118 6.94663 11.05 7.90251 11.3559 8.78192C11.7382 10.0055 12.4265 10.6555 13.0765 10.8849C13.3823 11.0378 13.4206 11.0378 13.7647 11.1907C14.1471 11.4584 14.6059 11.6496 14.9882 11.726C14.2235 14.326 13.9559 17.9584 14.1853 21.5525C13.9559 20.7113 13.8029 19.9084 13.5353 19.1055ZM14.7206 4.07898C15.2559 3.16134 15.7529 2.32016 16.6706 1.78487C17.2059 1.47898 17.6265 1.44075 17.9706 1.93781C18.2765 2.43487 18.8882 3.88781 19.1176 5.11134C19.4618 7.13781 19.1176 9.96722 17.1676 10.9231C17.1676 10.9231 17.1294 10.9231 17.1294 10.9613C16.5176 11.229 15.8294 11.3055 15.1794 11.1525C14.5294 10.9996 13.6882 10.5407 13.4588 9.96722C13.1912 9.35545 13.1529 8.55251 13.3441 7.6731C13.7265 5.64663 14.6823 4.11722 14.7206 4.07898ZM18.9265 1.78487C18.9265 1.78487 18.9647 1.78487 19.0794 1.89957C19.1941 2.01428 19.2706 2.16722 19.3088 2.32016C20.3412 4.61428 20.7235 7.29075 19.2706 9.31722C19.9971 7.52016 20.0353 4.9584 18.6971 2.12898C18.7735 1.97604 18.8882 1.8231 18.9265 1.78487ZM15.7529 0.981925C16.4029 0.752514 17.5118 0.637808 17.9323 1.1731C17.4353 0.867219 16.9 0.981925 16.3647 1.28781C15.7147 1.67016 15.2176 2.20545 14.8353 2.77898C14.7971 2.66428 14.7206 2.51134 14.6441 2.39663C14.6441 1.78487 15.1029 1.21134 15.7529 0.981925ZM13.8029 2.01428C14.0706 2.43487 14.3 2.89369 14.4912 3.39075C13.7265 4.65251 13.1147 5.87604 12.7706 7.5584C12.5794 8.51428 12.6176 9.39369 12.8853 10.1202C11.1647 8.82016 11.1265 4.11722 13.1912 1.93781C13.3823 1.74663 13.4588 1.7084 13.4971 1.7084C13.5735 1.74663 13.6882 1.8231 13.8029 2.01428ZM20.4176 13.179V13.829C20.2265 17.3849 19.4235 20.9407 16.8235 23.3496C16.4029 23.7319 15.7529 24.3819 15.2176 24.5731C15.2176 24.5349 15.1794 24.5349 15.1794 24.4966C15.1412 24.4584 15.1412 24.3819 15.1029 24.3437C15.0647 24.1525 15.0265 23.9613 15.0265 23.7702C14.9118 20.1378 18.7735 17.1555 20.4176 13.179ZM14.4529 24.3437C14.0706 24.1143 13.65 23.8466 13.2294 23.579C7.07352 19.8702 3.59411 11.3437 7.11176 1.47898C7.99117 9.43192 9.1 11.8025 11.05 15.2437C12.7706 18.2643 12.9618 19.029 13.4588 20.9407C13.6882 21.8202 13.8029 22.2407 14.0323 22.8907C14.1088 23.1966 14.2235 23.8849 14.4529 24.3437Z" fill="black" fill-opacity="0.2"/>
<path d="M16.9349 9.16467C17.0496 9.16467 17.1261 9.12644 17.2026 9.01173C18.0055 7.59702 18.2349 5.95291 17.929 4.38526C17.8908 4.23232 17.7379 4.11761 17.5849 4.15585C17.432 4.19408 17.3173 4.34702 17.3555 4.49997C17.6614 5.95291 17.3938 7.44408 16.7055 8.74408C16.5526 8.89702 16.7055 9.16467 16.9349 9.16467ZM16.3996 9.89114H16.4761C16.629 9.89114 16.782 9.77644 16.782 9.58526C16.782 9.39408 16.6673 9.27938 16.4761 9.27938H16.3996C16.2467 9.27938 16.0938 9.39408 16.0938 9.58526C16.0938 9.77644 16.2467 9.89114 16.3996 9.89114Z" fill="black"/>
<path d="M16.9349 9.16467C17.0496 9.16467 17.1261 9.12644 17.2026 9.01173C18.0055 7.59702 18.2349 5.95291 17.929 4.38526C17.8908 4.23232 17.7379 4.11761 17.5849 4.15585C17.432 4.19408 17.3173 4.34702 17.3555 4.49997C17.6614 5.95291 17.3938 7.44408 16.7055 8.74408C16.5526 8.89702 16.7055 9.16467 16.9349 9.16467ZM16.3996 9.89114H16.4761C16.629 9.89114 16.782 9.77644 16.782 9.58526C16.782 9.39408 16.6673 9.27938 16.4761 9.27938H16.3996C16.2467 9.27938 16.0938 9.39408 16.0938 9.58526C16.0938 9.77644 16.2467 9.89114 16.3996 9.89114Z" fill="black" fill-opacity="0.2"/>
</svg>
