<svg width="181" height="60" viewBox="0 0 181 60" fill="none" xmlns="http://www.w3.org/2000/svg">
<path d="M22.8566 41.9298C21.4448 37.6239 18.7625 33.9533 16.8566 29.9298C13.4684 22.8004 12.6213 14.8239 11.8448 7.12981C11.7742 6.56511 11.0684 6.49452 10.8566 6.98864C7.89191 14.3298 6.26838 22.4475 7.46838 30.2827C9.30367 42.7063 17.986 51.1063 24.1978 52.6592C24.339 52.7298 24.5507 52.871 24.6919 52.9416C24.7625 53.1533 24.9743 53.2945 25.186 53.2945C25.2566 53.2945 25.4684 53.2239 25.539 53.2239C26.9507 53.0122 28.5037 51.4592 29.5625 50.5416C37.8213 42.9886 36.339 30.0004 36.6919 26.6122C36.6919 26.3298 36.5507 26.0475 36.1978 26.0475C35.9154 25.9769 35.6331 26.1886 35.6331 26.5416C34.7154 34.2357 27.3743 39.9533 25.0448 46.6592C24.5507 40.0945 25.0448 33.3886 26.4566 28.5886C26.9507 28.7298 27.5154 28.7298 28.0801 28.6592C29.4213 28.4475 30.6919 27.8122 31.7507 26.9651C34.0095 25.5533 35.5625 23.2945 36.0566 20.471C36.6213 17.5063 36.0566 14.1886 34.5037 10.5886C34.3625 10.2357 34.1507 9.88275 33.8684 9.52981C33.4448 9.03569 32.8801 8.82393 32.3154 9.17687C31.6801 6.91805 28.8566 6.84746 26.6684 7.55334C25.539 7.97687 24.6213 8.82393 24.1978 9.81216C22.9272 8.04746 21.7272 9.03569 20.4566 10.871C18.9037 12.7769 18.4095 15.2475 18.2684 17.718C18.1978 19.4828 18.2684 21.2475 18.8331 22.871C19.539 25.1298 20.8095 26.3298 22.0095 26.7533C22.5743 27.0357 22.6448 27.0357 23.2801 27.318C23.986 27.8122 24.8331 28.1651 25.539 28.3063C24.1272 33.1063 23.6331 39.8122 24.0566 46.4474C23.6331 44.8945 23.3507 43.4122 22.8566 41.9298ZM25.0448 14.1886C26.0331 12.4945 26.9507 10.9416 28.6448 9.95334C29.6331 9.38863 30.4095 9.31805 31.0448 10.2357C31.6095 11.1533 32.739 13.8357 33.1625 16.0945C33.7978 19.8357 33.1625 25.0592 29.5625 26.8239C29.5625 26.8239 29.4919 26.8239 29.4919 26.8945C28.3625 27.3886 27.0919 27.5298 25.8919 27.2475C24.6919 26.9651 23.139 26.118 22.7154 25.0592C22.2213 23.9298 22.1507 22.4475 22.5037 20.8239C23.2095 17.0828 24.9743 14.2592 25.0448 14.1886ZM32.8095 9.95334C32.8095 9.95334 32.8801 9.95334 33.0919 10.1651C33.3037 10.3769 33.4448 10.6592 33.5154 10.9416C35.4213 15.1769 36.1272 20.118 33.4448 23.8592C34.786 20.5416 34.8566 15.8122 32.386 10.5886C32.5272 10.3063 32.739 10.0239 32.8095 9.95334ZM26.9507 8.47099C28.1507 8.04746 30.1978 7.83569 30.9743 8.82393C30.0566 8.25922 29.0684 8.47099 28.0801 9.03569C26.8801 9.74158 25.9625 10.7298 25.2566 11.7886C25.186 11.5769 25.0448 11.2945 24.9037 11.0828C24.9037 9.95334 25.7507 8.89452 26.9507 8.47099ZM23.3507 10.3769C23.8448 11.1533 24.2684 12.0004 24.6213 12.918C23.2095 15.2475 22.0801 17.5063 21.4448 20.6122C21.0919 22.3769 21.1625 24.0004 21.6566 25.3416C18.4801 22.9416 18.4095 14.2592 22.2213 10.2357C22.5743 9.88275 22.7154 9.81216 22.786 9.81216C22.9272 9.88275 23.139 10.0239 23.3507 10.3769ZM35.5625 30.9886V32.1886C35.2095 38.7533 33.7272 45.318 28.9272 49.7651C28.1507 50.471 26.9507 51.671 25.9625 52.0239C25.9625 51.9533 25.8919 51.9533 25.8919 51.8827C25.8213 51.8122 25.8213 51.671 25.7507 51.6004C25.6801 51.2474 25.6095 50.8945 25.6095 50.5416C25.3978 43.8357 32.5272 38.3298 35.5625 30.9886ZM24.5507 51.6004C23.8448 51.1769 23.0684 50.6827 22.2919 50.1886C10.9272 43.3416 4.50367 27.6004 10.9978 9.38864C12.6213 24.071 14.6684 28.4475 18.2684 34.8004C21.4448 40.3769 21.7978 41.7886 22.7154 45.318C23.139 46.9416 23.3507 47.718 23.7743 48.918C23.9154 49.4827 24.1272 50.7533 24.5507 51.6004Z" fill="black"/>
<path d="M22.8566 41.9298C21.4448 37.6239 18.7625 33.9533 16.8566 29.9298C13.4684 22.8004 12.6213 14.8239 11.8448 7.12981C11.7742 6.56511 11.0684 6.49452 10.8566 6.98864C7.89191 14.3298 6.26838 22.4475 7.46838 30.2827C9.30367 42.7063 17.986 51.1063 24.1978 52.6592C24.339 52.7298 24.5507 52.871 24.6919 52.9416C24.7625 53.1533 24.9743 53.2945 25.186 53.2945C25.2566 53.2945 25.4684 53.2239 25.539 53.2239C26.9507 53.0122 28.5037 51.4592 29.5625 50.5416C37.8213 42.9886 36.339 30.0004 36.6919 26.6122C36.6919 26.3298 36.5507 26.0475 36.1978 26.0475C35.9154 25.9769 35.6331 26.1886 35.6331 26.5416C34.7154 34.2357 27.3743 39.9533 25.0448 46.6592C24.5507 40.0945 25.0448 33.3886 26.4566 28.5886C26.9507 28.7298 27.5154 28.7298 28.0801 28.6592C29.4213 28.4475 30.6919 27.8122 31.7507 26.9651C34.0095 25.5533 35.5625 23.2945 36.0566 20.471C36.6213 17.5063 36.0566 14.1886 34.5037 10.5886C34.3625 10.2357 34.1507 9.88275 33.8684 9.52981C33.4448 9.03569 32.8801 8.82393 32.3154 9.17687C31.6801 6.91805 28.8566 6.84746 26.6684 7.55334C25.539 7.97687 24.6213 8.82393 24.1978 9.81216C22.9272 8.04746 21.7272 9.03569 20.4566 10.871C18.9037 12.7769 18.4095 15.2475 18.2684 17.718C18.1978 19.4828 18.2684 21.2475 18.8331 22.871C19.539 25.1298 20.8095 26.3298 22.0095 26.7533C22.5743 27.0357 22.6448 27.0357 23.2801 27.318C23.986 27.8122 24.8331 28.1651 25.539 28.3063C24.1272 33.1063 23.6331 39.8122 24.0566 46.4474C23.6331 44.8945 23.3507 43.4122 22.8566 41.9298ZM25.0448 14.1886C26.0331 12.4945 26.9507 10.9416 28.6448 9.95334C29.6331 9.38863 30.4095 9.31805 31.0448 10.2357C31.6095 11.1533 32.739 13.8357 33.1625 16.0945C33.7978 19.8357 33.1625 25.0592 29.5625 26.8239C29.5625 26.8239 29.4919 26.8239 29.4919 26.8945C28.3625 27.3886 27.0919 27.5298 25.8919 27.2475C24.6919 26.9651 23.139 26.118 22.7154 25.0592C22.2213 23.9298 22.1507 22.4475 22.5037 20.8239C23.2095 17.0828 24.9743 14.2592 25.0448 14.1886ZM32.8095 9.95334C32.8095 9.95334 32.8801 9.95334 33.0919 10.1651C33.3037 10.3769 33.4448 10.6592 33.5154 10.9416C35.4213 15.1769 36.1272 20.118 33.4448 23.8592C34.786 20.5416 34.8566 15.8122 32.386 10.5886C32.5272 10.3063 32.739 10.0239 32.8095 9.95334ZM26.9507 8.47099C28.1507 8.04746 30.1978 7.83569 30.9743 8.82393C30.0566 8.25922 29.0684 8.47099 28.0801 9.03569C26.8801 9.74158 25.9625 10.7298 25.2566 11.7886C25.186 11.5769 25.0448 11.2945 24.9037 11.0828C24.9037 9.95334 25.7507 8.89452 26.9507 8.47099ZM23.3507 10.3769C23.8448 11.1533 24.2684 12.0004 24.6213 12.918C23.2095 15.2475 22.0801 17.5063 21.4448 20.6122C21.0919 22.3769 21.1625 24.0004 21.6566 25.3416C18.4801 22.9416 18.4095 14.2592 22.2213 10.2357C22.5743 9.88275 22.7154 9.81216 22.786 9.81216C22.9272 9.88275 23.139 10.0239 23.3507 10.3769ZM35.5625 30.9886V32.1886C35.2095 38.7533 33.7272 45.318 28.9272 49.7651C28.1507 50.471 26.9507 51.671 25.9625 52.0239C25.9625 51.9533 25.8919 51.9533 25.8919 51.8827C25.8213 51.8122 25.8213 51.671 25.7507 51.6004C25.6801 51.2474 25.6095 50.8945 25.6095 50.5416C25.3978 43.8357 32.5272 38.3298 35.5625 30.9886ZM24.5507 51.6004C23.8448 51.1769 23.0684 50.6827 22.2919 50.1886C10.9272 43.3416 4.50367 27.6004 10.9978 9.38864C12.6213 24.071 14.6684 28.4475 18.2684 34.8004C21.4448 40.3769 21.7978 41.7886 22.7154 45.318C23.139 46.9416 23.3507 47.718 23.7743 48.918C23.9154 49.4827 24.1272 50.7533 24.5507 51.6004Z" fill="black" fill-opacity="0.2"/>
<path d="M29.1311 23.5771C29.3428 23.5771 29.484 23.5066 29.6252 23.2948C31.1075 20.683 31.5311 17.6477 30.9663 14.7536C30.8958 14.4713 30.6134 14.2595 30.3311 14.3301C30.0487 14.4007 29.8369 14.683 29.9075 14.9654C30.4722 17.6477 29.9781 20.4007 28.7075 22.8007C28.4252 23.083 28.7075 23.5771 29.1311 23.5771ZM28.1428 24.9183H28.284C28.5663 24.9183 28.8487 24.7066 28.8487 24.3536C28.8487 24.0007 28.6369 23.7889 28.284 23.7889H28.1428C27.8605 23.7889 27.5781 24.0007 27.5781 24.3536C27.5781 24.7066 27.8605 24.9183 28.1428 24.9183Z" fill="black"/>
<path d="M29.1311 23.5771C29.3428 23.5771 29.484 23.5066 29.6252 23.2948C31.1075 20.683 31.5311 17.6477 30.9663 14.7536C30.8958 14.4713 30.6134 14.2595 30.3311 14.3301C30.0487 14.4007 29.8369 14.683 29.9075 14.9654C30.4722 17.6477 29.9781 20.4007 28.7075 22.8007C28.4252 23.083 28.7075 23.5771 29.1311 23.5771ZM28.1428 24.9183H28.284C28.5663 24.9183 28.8487 24.7066 28.8487 24.3536C28.8487 24.0007 28.6369 23.7889 28.284 23.7889H28.1428C27.8605 23.7889 27.5781 24.0007 27.5781 24.3536C27.5781 24.7066 27.8605 24.9183 28.1428 24.9183Z" fill="black" fill-opacity="0.2"/>
<path d="M79.9375 18.1826C79.9375 17.7666 79.9668 17.2891 80.0254 16.75C80.0899 16.2109 80.1221 15.7188 80.1221 15.2734C80.1221 15.25 80.1221 15.2266 80.1221 15.2031C80.1221 14.8281 80.1426 14.582 80.1836 14.4648C80.2012 13.9434 80.2158 13.2314 80.2276 12.3291C80.2451 11.4268 80.2627 10.334 80.2803 9.05078L80.3067 6.89746C80.3067 6.73926 80.3623 6.60742 80.4736 6.50195C80.5908 6.39062 80.7285 6.33496 80.8867 6.33496C81.0391 6.33496 81.1709 6.39355 81.2822 6.51074C81.3936 6.62793 81.4492 6.7627 81.4492 6.91504L81.4229 9.05957C81.417 9.66895 81.4112 10.2197 81.4053 10.7119C81.3994 11.1982 81.3906 11.623 81.3789 11.9863C82.5625 10.791 83.7197 10.1582 84.8506 10.0879C84.9326 10.082 85.0176 10.0791 85.1055 10.0791C86.1074 10.0791 86.9248 10.4746 87.5576 11.2656C87.9209 11.7227 88.2051 12.2529 88.4102 12.8564C88.6211 13.46 88.7266 14.0781 88.7266 14.7109C88.7266 15.1797 88.6621 15.6426 88.5332 16.0996C88.4102 16.5566 88.2139 16.9844 87.9444 17.3828C87.5576 17.9512 87.0654 18.3906 86.4678 18.7012C85.8701 19.0059 85.1699 19.1582 84.3672 19.1582C83.0664 19.1582 82.0147 18.4961 81.2119 17.1719C81.2002 17.4238 81.1856 17.6523 81.168 17.8574C81.1563 18.0625 81.1416 18.2412 81.124 18.3936C81.1065 18.5518 81.0449 18.6924 80.9395 18.8154C80.8399 18.9326 80.7139 18.9912 80.5615 18.9912C80.3389 18.9912 80.1778 18.9121 80.0781 18.7539C79.9844 18.5898 79.9375 18.3994 79.9375 18.1826ZM84.3584 18.0156C85.3486 18.0156 86.1309 17.7051 86.7051 17.084C87.2852 16.4629 87.5752 15.6543 87.5752 14.6582C87.5752 14.0898 87.4727 13.5449 87.2676 13.0234C87.0684 12.4961 86.7813 12.0654 86.4063 11.7314C86.0313 11.3916 85.5889 11.2217 85.0791 11.2217C85.0381 11.2217 84.9971 11.2217 84.9561 11.2217C83.8486 11.2979 82.6445 12.1416 81.3438 13.7529C81.3379 13.8877 81.335 14.0225 81.335 14.1572C81.335 14.292 81.332 14.4238 81.3262 14.5527C81.3731 14.6816 81.4346 14.8604 81.5108 15.0889C82.1729 17.04 83.1221 18.0156 84.3584 18.0156ZM96.9883 10.8525L97.0938 12.1709C97.1582 13.2314 97.1904 14.2275 97.1904 15.1592C97.1904 19.0791 96.6221 21.8154 95.4854 23.3682C95.1865 23.7783 94.8438 24.0801 94.457 24.2734C94.0762 24.4668 93.669 24.5635 93.2354 24.5635C92.6729 24.5635 92.0781 24.4111 91.4512 24.1064C91.252 24.0068 91.1524 23.834 91.1524 23.5879C91.1524 23.418 91.2315 23.2656 91.3897 23.1309C91.5479 22.9961 91.7383 22.9785 91.961 23.0781C92.4238 23.3125 92.8399 23.4297 93.209 23.4297C93.4668 23.4297 93.7012 23.374 93.9121 23.2627C94.3164 23.0518 94.6504 22.6738 94.9141 22.1289C95.1836 21.584 95.3975 20.9395 95.5557 20.1953C95.7197 19.4512 95.8369 18.6748 95.9072 17.8662C95.9834 17.0518 96.0274 16.2725 96.0391 15.5283C95.9043 15.9033 95.7315 16.2988 95.5205 16.7148C95.3096 17.125 95.0606 17.5117 94.7735 17.875C94.4922 18.2383 94.1787 18.5342 93.833 18.7627C93.4932 18.9912 93.1211 19.1055 92.7168 19.1055C92.2363 19.1055 91.8291 18.9561 91.4951 18.6572C91.167 18.3525 90.8887 17.9219 90.6602 17.3652C90.2559 16.3926 90.0537 15.1094 90.0537 13.5156C90.0537 12.6543 90.1123 11.7051 90.2295 10.668C90.2471 10.5039 90.3115 10.3838 90.4229 10.3076C90.5342 10.2256 90.6572 10.1846 90.792 10.1846C90.9326 10.1846 91.0615 10.2314 91.1787 10.3252C91.3018 10.4131 91.3633 10.5479 91.3633 10.7295C91.3633 10.7529 91.3633 10.7764 91.3633 10.7998C91.252 11.8076 91.1963 12.7188 91.1963 13.5332C91.1963 14.9688 91.3692 16.1055 91.7149 16.9434C91.9961 17.6289 92.333 17.9717 92.7256 17.9717C93.083 17.9717 93.4844 17.6846 93.9297 17.1104C94.9551 15.7803 95.5938 13.7002 95.8457 10.8701C95.8574 10.7061 95.919 10.583 96.0303 10.501C96.1475 10.4131 96.2735 10.3691 96.4082 10.3691C96.543 10.3691 96.666 10.4102 96.7774 10.4922C96.8945 10.5742 96.9649 10.6943 96.9883 10.8525ZM103.879 7.12598C103.873 7.09668 103.87 7.06738 103.87 7.03809C103.87 6.86816 103.931 6.73633 104.054 6.64258C104.183 6.54297 104.321 6.49316 104.467 6.49316C104.59 6.49316 104.705 6.53125 104.81 6.60742C104.916 6.68359 104.98 6.80371 105.004 6.96777C105.214 8.46191 105.434 9.82715 105.663 11.0635C105.897 12.2939 106.14 13.3984 106.392 14.377C106.89 16.3223 107.374 17.4238 107.842 17.6816C107.936 17.7285 108.021 17.7139 108.097 17.6377C109.17 16.6006 110.453 13.0732 111.947 7.05566C111.982 6.92676 112.052 6.82715 112.158 6.75684C112.269 6.68066 112.386 6.64258 112.509 6.64258C112.668 6.64258 112.808 6.70996 112.931 6.84473C113.06 6.97949 113.101 7.14355 113.054 7.33691C111.613 13.1201 110.347 16.6914 109.257 18.0508C108.853 18.5547 108.399 18.8066 107.895 18.8066C107.333 18.8066 106.835 18.4639 106.401 17.7783C105.973 17.0928 105.589 16.0791 105.25 14.7373C104.793 12.9268 104.336 10.3896 103.879 7.12598ZM116.069 16.0205C116.239 16.6299 116.567 17.1074 117.053 17.4531C117.546 17.7988 118.164 17.9717 118.908 17.9717C119.904 17.9717 121.061 17.6465 122.379 16.9961C122.462 16.9551 122.546 16.9346 122.634 16.9346C122.787 16.9346 122.919 16.9873 123.03 17.0928C123.147 17.1982 123.206 17.3301 123.206 17.4883C123.206 17.7402 123.1 17.9189 122.889 18.0244C122.221 18.3525 121.542 18.6162 120.85 18.8154C120.159 19.0146 119.491 19.1143 118.846 19.1143C118.184 19.1143 117.566 18.9912 116.992 18.7451C116.423 18.499 115.937 18.0889 115.533 17.5146C115.304 17.1924 115.129 16.8496 115.005 16.4863C114.882 16.123 114.821 15.7158 114.821 15.2646C114.821 15.0654 114.833 14.8574 114.856 14.6406C114.991 13.5215 115.457 12.5635 116.254 11.7666C117.285 10.7354 118.641 10.2197 120.323 10.2197C120.967 10.2197 121.533 10.3457 122.019 10.5977C122.505 10.8438 122.851 11.1953 123.056 11.6523C123.168 11.9043 123.223 12.1709 123.223 12.4521C123.223 12.9326 123.097 13.3574 122.845 13.7266C122.599 14.0898 122.248 14.4268 121.791 14.7373C120.507 15.6045 118.647 16.0381 116.21 16.0381C116.174 16.0381 116.128 16.0322 116.069 16.0205ZM115.972 14.9482C116.054 14.9131 116.133 14.8955 116.21 14.8955C118.419 14.8955 120.068 14.5264 121.158 13.7881C121.463 13.583 121.694 13.375 121.852 13.1641C122.01 12.9473 122.089 12.6982 122.089 12.417C122.089 12.2529 122.051 12.1211 121.975 12.0215C121.905 11.9219 121.811 11.8281 121.694 11.7402C121.366 11.4883 120.912 11.3623 120.332 11.3623C119.552 11.3623 118.843 11.5088 118.205 11.8018C117.566 12.0889 117.047 12.502 116.649 13.041C116.256 13.5742 116.031 14.21 115.972 14.9482ZM125.579 19.0703C125.415 19.0703 125.274 18.9912 125.157 18.833C125.04 18.6689 124.981 18.5225 124.981 18.3936C124.981 18.2822 124.999 18.168 125.034 18.0508C125.075 17.9336 125.098 17.8223 125.104 17.7168C125.122 17.3945 125.154 16.9609 125.201 16.416C125.248 15.8652 125.271 15.332 125.271 14.8164C125.271 14.4414 125.265 14.0342 125.254 13.5947C125.218 12.2998 125.166 11.5117 125.095 11.2305C125.066 11.1074 125.051 10.9961 125.051 10.8965C125.051 10.7266 125.098 10.5889 125.192 10.4834C125.292 10.3721 125.429 10.3164 125.605 10.3164C125.74 10.3164 125.857 10.3604 125.957 10.4482C126.056 10.5361 126.121 10.6357 126.15 10.7471C126.279 11.2334 126.355 11.9805 126.379 12.9883C127.234 11.3066 128.391 10.375 129.85 10.1934C129.874 10.1934 129.897 10.1934 129.921 10.1934C130.096 10.1934 130.231 10.2578 130.325 10.3867C130.424 10.5098 130.474 10.6445 130.474 10.791C130.474 10.9199 130.436 11.0371 130.36 11.1426C130.284 11.248 130.161 11.3096 129.991 11.3271C128.503 11.5146 127.407 12.8477 126.704 15.3262C126.534 15.9297 126.405 16.5508 126.317 17.1895C126.299 17.4531 126.282 17.6611 126.264 17.8135C126.253 17.9658 126.247 18.1094 126.247 18.2441C126.247 18.3203 126.253 18.3818 126.264 18.4287C126.276 18.4756 126.282 18.5166 126.282 18.5518C126.282 18.6807 126.194 18.8008 126.018 18.9121C125.848 19.0176 125.702 19.0703 125.579 19.0703ZM134.605 9.88574C136.064 9.97363 137.259 10.6943 138.191 12.0479C138.443 12.4111 138.636 12.8154 138.771 13.2607C138.906 13.7002 138.973 14.1895 138.973 14.7285C138.973 15.5312 138.783 16.252 138.402 16.8906C138.021 17.5234 137.561 18.0127 137.022 18.3584C136.676 18.5811 136.287 18.7598 135.853 18.8945C135.42 19.0234 134.971 19.0879 134.508 19.0879C133.647 19.0879 132.912 18.9004 132.302 18.5254C131.699 18.1445 131.213 17.6729 130.843 17.1104C130.345 16.3369 130.096 15.5078 130.096 14.623C130.096 14.3887 130.114 14.1514 130.149 13.9111C130.313 12.7451 130.802 11.79 131.617 11.0459C132.437 10.2959 133.363 9.90039 134.394 9.85938C134.464 9.84766 134.535 9.85645 134.605 9.88574ZM137.822 14.667C137.822 13.9873 137.664 13.3809 137.347 12.8477C137.031 12.3086 136.621 11.8809 136.117 11.5645C135.619 11.2422 135.094 11.0635 134.544 11.0283C134.497 11.0283 134.45 11.0195 134.403 11.002C133.805 11.0371 133.266 11.2217 132.786 11.5557C132.305 11.8838 131.924 12.3174 131.643 12.8564C131.368 13.3896 131.23 13.9844 131.23 14.6406C131.23 15.1445 131.327 15.6016 131.52 16.0117C131.719 16.4219 131.974 16.7734 132.285 17.0664C132.601 17.3535 132.929 17.5674 133.269 17.708C133.679 17.8721 134.101 17.9541 134.535 17.9541C135.138 17.9541 135.686 17.8135 136.178 17.5322C136.676 17.2451 137.054 16.8994 137.312 16.4951C137.482 16.2256 137.608 15.9355 137.69 15.625C137.778 15.3086 137.822 14.9893 137.822 14.667ZM141.32 9.94727C141.49 9.94727 141.63 10.0146 141.742 10.1494C142.164 10.6592 142.471 11.4443 142.665 12.5049C143.462 11.0635 144.49 10.252 145.75 10.0703C145.949 10.041 146.145 10.0264 146.338 10.0264C147.042 10.0264 147.663 10.1875 148.202 10.5098C148.741 10.832 149.183 11.2568 149.529 11.7842C149.875 12.3115 150.109 12.8799 150.232 13.4893C150.314 13.8818 150.355 14.2832 150.355 14.6934C150.355 15.9883 149.942 17.3564 149.116 18.7979C149.01 18.9795 148.849 19.0703 148.632 19.0703C148.451 19.0703 148.287 18.9854 148.14 18.8154C148 18.6396 147.994 18.4434 148.123 18.2266C148.849 16.9609 149.213 15.7803 149.213 14.6846C149.213 14.3564 149.18 14.0371 149.116 13.7266C149.022 13.2754 148.849 12.8564 148.597 12.4697C148.351 12.083 148.035 11.7725 147.648 11.5381C147.267 11.2979 146.828 11.1777 146.33 11.1777C146.195 11.1777 146.057 11.1865 145.917 11.2041C145.337 11.2861 144.841 11.541 144.431 11.9688C144.021 12.3965 143.69 12.915 143.438 13.5244C143.192 14.1279 143.013 14.7432 142.902 15.3701C142.902 15.4463 142.902 15.5225 142.902 15.5986C142.902 16.4424 142.858 17.292 142.77 18.1475L142.735 18.4902C142.717 18.6543 142.653 18.7773 142.542 18.8594C142.43 18.9355 142.31 18.9736 142.181 18.9736C142.041 18.9736 141.909 18.9297 141.786 18.8418C141.669 18.7539 141.607 18.6221 141.601 18.4463C141.589 18.1826 141.584 17.9248 141.584 17.6729C141.584 16.8115 141.642 16.0176 141.759 15.291C141.736 13.9434 141.63 12.9326 141.443 12.2588C141.261 11.5908 141.094 11.1631 140.942 10.9756C140.801 10.7998 140.731 10.6445 140.731 10.5098C140.731 10.3398 140.793 10.2051 140.916 10.1055C141.039 10 141.173 9.94727 141.32 9.94727ZM152.122 8.32129C152.122 8.10449 152.186 7.89648 152.315 7.69727C152.45 7.49219 152.614 7.32812 152.807 7.20508C153.001 7.07617 153.191 7.01172 153.379 7.01172C153.654 7.01172 153.885 7.12891 154.073 7.36328C154.266 7.5918 154.363 7.82031 154.363 8.04883C154.363 8.26562 154.296 8.46484 154.161 8.64648C154.026 8.82812 153.844 8.95996 153.616 9.04199C153.358 9.1709 153.129 9.23535 152.93 9.23535C152.713 9.23535 152.523 9.14746 152.359 8.97168C152.201 8.79004 152.122 8.57324 152.122 8.32129ZM153.546 17.5674C153.528 18.0361 153.463 18.4111 153.352 18.6924C153.241 18.9678 153.047 19.1055 152.772 19.1055C152.62 19.1055 152.485 19.0498 152.368 18.9385C152.251 18.8271 152.192 18.6895 152.192 18.5254C152.192 18.4492 152.207 18.373 152.236 18.2969C152.289 18.1738 152.33 17.9307 152.359 17.5674C152.394 17.1982 152.421 16.7646 152.438 16.2666C152.456 15.7686 152.467 15.2559 152.473 14.7285C152.485 14.1953 152.491 13.7002 152.491 13.2432C152.491 12.7861 152.491 12.4229 152.491 12.1533C152.491 11.6553 152.488 11.1777 152.482 10.7207C152.482 10.5332 152.541 10.3926 152.658 10.2988C152.781 10.2051 152.916 10.1582 153.062 10.1582C153.203 10.1582 153.329 10.2051 153.44 10.2988C153.557 10.3867 153.616 10.5215 153.616 10.7031C153.622 11.0137 153.625 11.3184 153.625 11.6172C153.63 11.916 153.633 12.209 153.633 12.4961C153.633 13.4512 153.628 14.3154 153.616 15.0889C153.61 15.8623 153.587 16.6885 153.546 17.5674ZM163.222 19.0703C163.093 19.0703 162.964 19.0176 162.836 18.9121C162.713 18.8066 162.651 18.6953 162.651 18.5781C162.651 18.2852 162.393 17.9336 161.878 17.5234C160.753 16.6387 159.288 15.8037 157.483 15.0186C157.424 14.9951 157.36 14.9541 157.29 14.8955C157.272 15.6338 157.263 16.2754 157.263 16.8203C157.263 17.6875 157.284 18.2588 157.325 18.5342C157.331 18.5693 157.334 18.6016 157.334 18.6309C157.334 18.8066 157.272 18.9414 157.149 19.0352C157.026 19.1289 156.891 19.1758 156.745 19.1758C156.622 19.1758 156.505 19.1377 156.393 19.0615C156.288 18.9854 156.223 18.8652 156.2 18.7012C156.153 18.4023 156.129 17.79 156.129 16.8643C156.129 14.8955 156.232 11.5117 156.437 6.71289C156.443 6.53711 156.505 6.40527 156.622 6.31738C156.739 6.22949 156.868 6.18555 157.008 6.18555C157.149 6.18555 157.278 6.23242 157.395 6.32617C157.512 6.41406 157.571 6.5459 157.571 6.72168C157.571 6.7334 157.571 6.74805 157.571 6.76562C157.506 8.26562 157.454 9.62793 157.413 10.8525C157.372 12.0713 157.339 13.1494 157.316 14.0869C157.334 14.0752 157.363 14.0547 157.404 14.0254C157.451 13.9902 157.509 13.9521 157.58 13.9111C158.64 13.3018 159.469 12.707 160.067 12.127C160.676 11.5352 160.981 11.0986 160.981 10.8174C160.981 10.665 161.037 10.5332 161.148 10.4219C161.265 10.3047 161.4 10.2461 161.552 10.2461C161.74 10.2461 161.88 10.3105 161.974 10.4395C162.074 10.5684 162.124 10.7383 162.124 10.9492C162.124 11.459 161.734 12.0947 160.955 12.8564C160.568 13.2314 160.219 13.5303 159.909 13.7529C159.604 13.9697 159.276 14.1924 158.924 14.4209C160.348 15.1006 161.52 15.8008 162.44 16.5215C163.342 17.2305 163.794 17.8896 163.794 18.499C163.794 18.6514 163.735 18.7861 163.618 18.9033C163.506 19.0146 163.375 19.0703 163.222 19.0703ZM171.888 12.8916C171.906 12.9561 171.915 13.0234 171.915 13.0938C171.915 13.2285 171.888 13.3838 171.836 13.5596C171.748 14.4854 171.704 15.3115 171.704 16.0381C171.704 17.0518 171.789 17.875 171.959 18.5078C171.976 18.5664 171.985 18.6221 171.985 18.6748C171.985 18.8389 171.921 18.9678 171.792 19.0615C171.669 19.1611 171.534 19.2109 171.387 19.2109C171.276 19.2109 171.171 19.1787 171.071 19.1143C170.971 19.0498 170.901 18.9443 170.86 18.7979C170.678 18.124 170.582 17.2686 170.57 16.2314C170.013 17.1279 169.416 17.834 168.777 18.3496C168.39 18.6602 167.992 18.8359 167.582 18.877C167.336 18.9473 167.095 18.9824 166.861 18.9824C166.527 18.9824 166.222 18.9209 165.947 18.7979C165.671 18.6748 165.434 18.5195 165.235 18.332C164.878 17.998 164.599 17.5674 164.4 17.04C164.207 16.5068 164.11 15.8916 164.11 15.1943C164.11 14.2979 164.318 13.4424 164.734 12.6279C165.343 11.4326 166.269 10.6357 167.511 10.2373C167.986 10.0791 168.443 10 168.882 10C169.433 10 169.952 10.1289 170.438 10.3867C171.288 10.8379 171.771 11.6729 171.888 12.8916ZM170.746 12.9707C170.693 12.4082 170.508 11.9629 170.192 11.6348C169.881 11.3066 169.457 11.1426 168.918 11.1426C168.595 11.1426 168.244 11.2041 167.863 11.3271C166.92 11.626 166.231 12.2031 165.797 13.0586C165.434 13.7793 165.253 14.4971 165.253 15.2119C165.253 15.7158 165.32 16.167 165.455 16.5654C165.589 16.9639 165.762 17.2627 165.973 17.4619C166.237 17.708 166.536 17.8311 166.87 17.8311C166.981 17.8311 167.087 17.8193 167.186 17.7959C167.292 17.7666 167.409 17.7461 167.538 17.7344C167.637 17.7227 167.834 17.6025 168.127 17.374C168.42 17.1396 168.73 16.8086 169.058 16.3809C169.392 15.9531 169.706 15.4727 169.999 14.9395C170.292 14.4062 170.529 13.8701 170.711 13.3311C170.716 13.2725 170.722 13.2139 170.728 13.1553C170.734 13.0908 170.74 13.0293 170.746 12.9707Z" fill="black"/>
<path d="M79.9375 18.1826C79.9375 17.7666 79.9668 17.2891 80.0254 16.75C80.0899 16.2109 80.1221 15.7188 80.1221 15.2734C80.1221 15.25 80.1221 15.2266 80.1221 15.2031C80.1221 14.8281 80.1426 14.582 80.1836 14.4648C80.2012 13.9434 80.2158 13.2314 80.2276 12.3291C80.2451 11.4268 80.2627 10.334 80.2803 9.05078L80.3067 6.89746C80.3067 6.73926 80.3623 6.60742 80.4736 6.50195C80.5908 6.39062 80.7285 6.33496 80.8867 6.33496C81.0391 6.33496 81.1709 6.39355 81.2822 6.51074C81.3936 6.62793 81.4492 6.7627 81.4492 6.91504L81.4229 9.05957C81.417 9.66895 81.4112 10.2197 81.4053 10.7119C81.3994 11.1982 81.3906 11.623 81.3789 11.9863C82.5625 10.791 83.7197 10.1582 84.8506 10.0879C84.9326 10.082 85.0176 10.0791 85.1055 10.0791C86.1074 10.0791 86.9248 10.4746 87.5576 11.2656C87.9209 11.7227 88.2051 12.2529 88.4102 12.8564C88.6211 13.46 88.7266 14.0781 88.7266 14.7109C88.7266 15.1797 88.6621 15.6426 88.5332 16.0996C88.4102 16.5566 88.2139 16.9844 87.9444 17.3828C87.5576 17.9512 87.0654 18.3906 86.4678 18.7012C85.8701 19.0059 85.1699 19.1582 84.3672 19.1582C83.0664 19.1582 82.0147 18.4961 81.2119 17.1719C81.2002 17.4238 81.1856 17.6523 81.168 17.8574C81.1563 18.0625 81.1416 18.2412 81.124 18.3936C81.1065 18.5518 81.0449 18.6924 80.9395 18.8154C80.8399 18.9326 80.7139 18.9912 80.5615 18.9912C80.3389 18.9912 80.1778 18.9121 80.0781 18.7539C79.9844 18.5898 79.9375 18.3994 79.9375 18.1826ZM84.3584 18.0156C85.3486 18.0156 86.1309 17.7051 86.7051 17.084C87.2852 16.4629 87.5752 15.6543 87.5752 14.6582C87.5752 14.0898 87.4727 13.5449 87.2676 13.0234C87.0684 12.4961 86.7813 12.0654 86.4063 11.7314C86.0313 11.3916 85.5889 11.2217 85.0791 11.2217C85.0381 11.2217 84.9971 11.2217 84.9561 11.2217C83.8486 11.2979 82.6445 12.1416 81.3438 13.7529C81.3379 13.8877 81.335 14.0225 81.335 14.1572C81.335 14.292 81.332 14.4238 81.3262 14.5527C81.3731 14.6816 81.4346 14.8604 81.5108 15.0889C82.1729 17.04 83.1221 18.0156 84.3584 18.0156ZM96.9883 10.8525L97.0938 12.1709C97.1582 13.2314 97.1904 14.2275 97.1904 15.1592C97.1904 19.0791 96.6221 21.8154 95.4854 23.3682C95.1865 23.7783 94.8438 24.0801 94.457 24.2734C94.0762 24.4668 93.669 24.5635 93.2354 24.5635C92.6729 24.5635 92.0781 24.4111 91.4512 24.1064C91.252 24.0068 91.1524 23.834 91.1524 23.5879C91.1524 23.418 91.2315 23.2656 91.3897 23.1309C91.5479 22.9961 91.7383 22.9785 91.961 23.0781C92.4238 23.3125 92.8399 23.4297 93.209 23.4297C93.4668 23.4297 93.7012 23.374 93.9121 23.2627C94.3164 23.0518 94.6504 22.6738 94.9141 22.1289C95.1836 21.584 95.3975 20.9395 95.5557 20.1953C95.7197 19.4512 95.8369 18.6748 95.9072 17.8662C95.9834 17.0518 96.0274 16.2725 96.0391 15.5283C95.9043 15.9033 95.7315 16.2988 95.5205 16.7148C95.3096 17.125 95.0606 17.5117 94.7735 17.875C94.4922 18.2383 94.1787 18.5342 93.833 18.7627C93.4932 18.9912 93.1211 19.1055 92.7168 19.1055C92.2363 19.1055 91.8291 18.9561 91.4951 18.6572C91.167 18.3525 90.8887 17.9219 90.6602 17.3652C90.2559 16.3926 90.0537 15.1094 90.0537 13.5156C90.0537 12.6543 90.1123 11.7051 90.2295 10.668C90.2471 10.5039 90.3115 10.3838 90.4229 10.3076C90.5342 10.2256 90.6572 10.1846 90.792 10.1846C90.9326 10.1846 91.0615 10.2314 91.1787 10.3252C91.3018 10.4131 91.3633 10.5479 91.3633 10.7295C91.3633 10.7529 91.3633 10.7764 91.3633 10.7998C91.252 11.8076 91.1963 12.7188 91.1963 13.5332C91.1963 14.9688 91.3692 16.1055 91.7149 16.9434C91.9961 17.6289 92.333 17.9717 92.7256 17.9717C93.083 17.9717 93.4844 17.6846 93.9297 17.1104C94.9551 15.7803 95.5938 13.7002 95.8457 10.8701C95.8574 10.7061 95.919 10.583 96.0303 10.501C96.1475 10.4131 96.2735 10.3691 96.4082 10.3691C96.543 10.3691 96.666 10.4102 96.7774 10.4922C96.8945 10.5742 96.9649 10.6943 96.9883 10.8525ZM103.879 7.12598C103.873 7.09668 103.87 7.06738 103.87 7.03809C103.87 6.86816 103.931 6.73633 104.054 6.64258C104.183 6.54297 104.321 6.49316 104.467 6.49316C104.59 6.49316 104.705 6.53125 104.81 6.60742C104.916 6.68359 104.98 6.80371 105.004 6.96777C105.214 8.46191 105.434 9.82715 105.663 11.0635C105.897 12.2939 106.14 13.3984 106.392 14.377C106.89 16.3223 107.374 17.4238 107.842 17.6816C107.936 17.7285 108.021 17.7139 108.097 17.6377C109.17 16.6006 110.453 13.0732 111.947 7.05566C111.982 6.92676 112.052 6.82715 112.158 6.75684C112.269 6.68066 112.386 6.64258 112.509 6.64258C112.668 6.64258 112.808 6.70996 112.931 6.84473C113.06 6.97949 113.101 7.14355 113.054 7.33691C111.613 13.1201 110.347 16.6914 109.257 18.0508C108.853 18.5547 108.399 18.8066 107.895 18.8066C107.333 18.8066 106.835 18.4639 106.401 17.7783C105.973 17.0928 105.589 16.0791 105.25 14.7373C104.793 12.9268 104.336 10.3896 103.879 7.12598ZM116.069 16.0205C116.239 16.6299 116.567 17.1074 117.053 17.4531C117.546 17.7988 118.164 17.9717 118.908 17.9717C119.904 17.9717 121.061 17.6465 122.379 16.9961C122.462 16.9551 122.546 16.9346 122.634 16.9346C122.787 16.9346 122.919 16.9873 123.03 17.0928C123.147 17.1982 123.206 17.3301 123.206 17.4883C123.206 17.7402 123.1 17.9189 122.889 18.0244C122.221 18.3525 121.542 18.6162 120.85 18.8154C120.159 19.0146 119.491 19.1143 118.846 19.1143C118.184 19.1143 117.566 18.9912 116.992 18.7451C116.423 18.499 115.937 18.0889 115.533 17.5146C115.304 17.1924 115.129 16.8496 115.005 16.4863C114.882 16.123 114.821 15.7158 114.821 15.2646C114.821 15.0654 114.833 14.8574 114.856 14.6406C114.991 13.5215 115.457 12.5635 116.254 11.7666C117.285 10.7354 118.641 10.2197 120.323 10.2197C120.967 10.2197 121.533 10.3457 122.019 10.5977C122.505 10.8438 122.851 11.1953 123.056 11.6523C123.168 11.9043 123.223 12.1709 123.223 12.4521C123.223 12.9326 123.097 13.3574 122.845 13.7266C122.599 14.0898 122.248 14.4268 121.791 14.7373C120.507 15.6045 118.647 16.0381 116.21 16.0381C116.174 16.0381 116.128 16.0322 116.069 16.0205ZM115.972 14.9482C116.054 14.9131 116.133 14.8955 116.21 14.8955C118.419 14.8955 120.068 14.5264 121.158 13.7881C121.463 13.583 121.694 13.375 121.852 13.1641C122.01 12.9473 122.089 12.6982 122.089 12.417C122.089 12.2529 122.051 12.1211 121.975 12.0215C121.905 11.9219 121.811 11.8281 121.694 11.7402C121.366 11.4883 120.912 11.3623 120.332 11.3623C119.552 11.3623 118.843 11.5088 118.205 11.8018C117.566 12.0889 117.047 12.502 116.649 13.041C116.256 13.5742 116.031 14.21 115.972 14.9482ZM125.579 19.0703C125.415 19.0703 125.274 18.9912 125.157 18.833C125.04 18.6689 124.981 18.5225 124.981 18.3936C124.981 18.2822 124.999 18.168 125.034 18.0508C125.075 17.9336 125.098 17.8223 125.104 17.7168C125.122 17.3945 125.154 16.9609 125.201 16.416C125.248 15.8652 125.271 15.332 125.271 14.8164C125.271 14.4414 125.265 14.0342 125.254 13.5947C125.218 12.2998 125.166 11.5117 125.095 11.2305C125.066 11.1074 125.051 10.9961 125.051 10.8965C125.051 10.7266 125.098 10.5889 125.192 10.4834C125.292 10.3721 125.429 10.3164 125.605 10.3164C125.74 10.3164 125.857 10.3604 125.957 10.4482C126.056 10.5361 126.121 10.6357 126.15 10.7471C126.279 11.2334 126.355 11.9805 126.379 12.9883C127.234 11.3066 128.391 10.375 129.85 10.1934C129.874 10.1934 129.897 10.1934 129.921 10.1934C130.096 10.1934 130.231 10.2578 130.325 10.3867C130.424 10.5098 130.474 10.6445 130.474 10.791C130.474 10.9199 130.436 11.0371 130.36 11.1426C130.284 11.248 130.161 11.3096 129.991 11.3271C128.503 11.5146 127.407 12.8477 126.704 15.3262C126.534 15.9297 126.405 16.5508 126.317 17.1895C126.299 17.4531 126.282 17.6611 126.264 17.8135C126.253 17.9658 126.247 18.1094 126.247 18.2441C126.247 18.3203 126.253 18.3818 126.264 18.4287C126.276 18.4756 126.282 18.5166 126.282 18.5518C126.282 18.6807 126.194 18.8008 126.018 18.9121C125.848 19.0176 125.702 19.0703 125.579 19.0703ZM134.605 9.88574C136.064 9.97363 137.259 10.6943 138.191 12.0479C138.443 12.4111 138.636 12.8154 138.771 13.2607C138.906 13.7002 138.973 14.1895 138.973 14.7285C138.973 15.5312 138.783 16.252 138.402 16.8906C138.021 17.5234 137.561 18.0127 137.022 18.3584C136.676 18.5811 136.287 18.7598 135.853 18.8945C135.42 19.0234 134.971 19.0879 134.508 19.0879C133.647 19.0879 132.912 18.9004 132.302 18.5254C131.699 18.1445 131.213 17.6729 130.843 17.1104C130.345 16.3369 130.096 15.5078 130.096 14.623C130.096 14.3887 130.114 14.1514 130.149 13.9111C130.313 12.7451 130.802 11.79 131.617 11.0459C132.437 10.2959 133.363 9.90039 134.394 9.85938C134.464 9.84766 134.535 9.85645 134.605 9.88574ZM137.822 14.667C137.822 13.9873 137.664 13.3809 137.347 12.8477C137.031 12.3086 136.621 11.8809 136.117 11.5645C135.619 11.2422 135.094 11.0635 134.544 11.0283C134.497 11.0283 134.45 11.0195 134.403 11.002C133.805 11.0371 133.266 11.2217 132.786 11.5557C132.305 11.8838 131.924 12.3174 131.643 12.8564C131.368 13.3896 131.23 13.9844 131.23 14.6406C131.23 15.1445 131.327 15.6016 131.52 16.0117C131.719 16.4219 131.974 16.7734 132.285 17.0664C132.601 17.3535 132.929 17.5674 133.269 17.708C133.679 17.8721 134.101 17.9541 134.535 17.9541C135.138 17.9541 135.686 17.8135 136.178 17.5322C136.676 17.2451 137.054 16.8994 137.312 16.4951C137.482 16.2256 137.608 15.9355 137.69 15.625C137.778 15.3086 137.822 14.9893 137.822 14.667ZM141.32 9.94727C141.49 9.94727 141.63 10.0146 141.742 10.1494C142.164 10.6592 142.471 11.4443 142.665 12.5049C143.462 11.0635 144.49 10.252 145.75 10.0703C145.949 10.041 146.145 10.0264 146.338 10.0264C147.042 10.0264 147.663 10.1875 148.202 10.5098C148.741 10.832 149.183 11.2568 149.529 11.7842C149.875 12.3115 150.109 12.8799 150.232 13.4893C150.314 13.8818 150.355 14.2832 150.355 14.6934C150.355 15.9883 149.942 17.3564 149.116 18.7979C149.01 18.9795 148.849 19.0703 148.632 19.0703C148.451 19.0703 148.287 18.9854 148.14 18.8154C148 18.6396 147.994 18.4434 148.123 18.2266C148.849 16.9609 149.213 15.7803 149.213 14.6846C149.213 14.3564 149.18 14.0371 149.116 13.7266C149.022 13.2754 148.849 12.8564 148.597 12.4697C148.351 12.083 148.035 11.7725 147.648 11.5381C147.267 11.2979 146.828 11.1777 146.33 11.1777C146.195 11.1777 146.057 11.1865 145.917 11.2041C145.337 11.2861 144.841 11.541 144.431 11.9688C144.021 12.3965 143.69 12.915 143.438 13.5244C143.192 14.1279 143.013 14.7432 142.902 15.3701C142.902 15.4463 142.902 15.5225 142.902 15.5986C142.902 16.4424 142.858 17.292 142.77 18.1475L142.735 18.4902C142.717 18.6543 142.653 18.7773 142.542 18.8594C142.43 18.9355 142.31 18.9736 142.181 18.9736C142.041 18.9736 141.909 18.9297 141.786 18.8418C141.669 18.7539 141.607 18.6221 141.601 18.4463C141.589 18.1826 141.584 17.9248 141.584 17.6729C141.584 16.8115 141.642 16.0176 141.759 15.291C141.736 13.9434 141.63 12.9326 141.443 12.2588C141.261 11.5908 141.094 11.1631 140.942 10.9756C140.801 10.7998 140.731 10.6445 140.731 10.5098C140.731 10.3398 140.793 10.2051 140.916 10.1055C141.039 10 141.173 9.94727 141.32 9.94727ZM152.122 8.32129C152.122 8.10449 152.186 7.89648 152.315 7.69727C152.45 7.49219 152.614 7.32812 152.807 7.20508C153.001 7.07617 153.191 7.01172 153.379 7.01172C153.654 7.01172 153.885 7.12891 154.073 7.36328C154.266 7.5918 154.363 7.82031 154.363 8.04883C154.363 8.26562 154.296 8.46484 154.161 8.64648C154.026 8.82812 153.844 8.95996 153.616 9.04199C153.358 9.1709 153.129 9.23535 152.93 9.23535C152.713 9.23535 152.523 9.14746 152.359 8.97168C152.201 8.79004 152.122 8.57324 152.122 8.32129ZM153.546 17.5674C153.528 18.0361 153.463 18.4111 153.352 18.6924C153.241 18.9678 153.047 19.1055 152.772 19.1055C152.62 19.1055 152.485 19.0498 152.368 18.9385C152.251 18.8271 152.192 18.6895 152.192 18.5254C152.192 18.4492 152.207 18.373 152.236 18.2969C152.289 18.1738 152.33 17.9307 152.359 17.5674C152.394 17.1982 152.421 16.7646 152.438 16.2666C152.456 15.7686 152.467 15.2559 152.473 14.7285C152.485 14.1953 152.491 13.7002 152.491 13.2432C152.491 12.7861 152.491 12.4229 152.491 12.1533C152.491 11.6553 152.488 11.1777 152.482 10.7207C152.482 10.5332 152.541 10.3926 152.658 10.2988C152.781 10.2051 152.916 10.1582 153.062 10.1582C153.203 10.1582 153.329 10.2051 153.44 10.2988C153.557 10.3867 153.616 10.5215 153.616 10.7031C153.622 11.0137 153.625 11.3184 153.625 11.6172C153.63 11.916 153.633 12.209 153.633 12.4961C153.633 13.4512 153.628 14.3154 153.616 15.0889C153.61 15.8623 153.587 16.6885 153.546 17.5674ZM163.222 19.0703C163.093 19.0703 162.964 19.0176 162.836 18.9121C162.713 18.8066 162.651 18.6953 162.651 18.5781C162.651 18.2852 162.393 17.9336 161.878 17.5234C160.753 16.6387 159.288 15.8037 157.483 15.0186C157.424 14.9951 157.36 14.9541 157.29 14.8955C157.272 15.6338 157.263 16.2754 157.263 16.8203C157.263 17.6875 157.284 18.2588 157.325 18.5342C157.331 18.5693 157.334 18.6016 157.334 18.6309C157.334 18.8066 157.272 18.9414 157.149 19.0352C157.026 19.1289 156.891 19.1758 156.745 19.1758C156.622 19.1758 156.505 19.1377 156.393 19.0615C156.288 18.9854 156.223 18.8652 156.2 18.7012C156.153 18.4023 156.129 17.79 156.129 16.8643C156.129 14.8955 156.232 11.5117 156.437 6.71289C156.443 6.53711 156.505 6.40527 156.622 6.31738C156.739 6.22949 156.868 6.18555 157.008 6.18555C157.149 6.18555 157.278 6.23242 157.395 6.32617C157.512 6.41406 157.571 6.5459 157.571 6.72168C157.571 6.7334 157.571 6.74805 157.571 6.76562C157.506 8.26562 157.454 9.62793 157.413 10.8525C157.372 12.0713 157.339 13.1494 157.316 14.0869C157.334 14.0752 157.363 14.0547 157.404 14.0254C157.451 13.9902 157.509 13.9521 157.58 13.9111C158.64 13.3018 159.469 12.707 160.067 12.127C160.676 11.5352 160.981 11.0986 160.981 10.8174C160.981 10.665 161.037 10.5332 161.148 10.4219C161.265 10.3047 161.4 10.2461 161.552 10.2461C161.74 10.2461 161.88 10.3105 161.974 10.4395C162.074 10.5684 162.124 10.7383 162.124 10.9492C162.124 11.459 161.734 12.0947 160.955 12.8564C160.568 13.2314 160.219 13.5303 159.909 13.7529C159.604 13.9697 159.276 14.1924 158.924 14.4209C160.348 15.1006 161.52 15.8008 162.44 16.5215C163.342 17.2305 163.794 17.8896 163.794 18.499C163.794 18.6514 163.735 18.7861 163.618 18.9033C163.506 19.0146 163.375 19.0703 163.222 19.0703ZM171.888 12.8916C171.906 12.9561 171.915 13.0234 171.915 13.0938C171.915 13.2285 171.888 13.3838 171.836 13.5596C171.748 14.4854 171.704 15.3115 171.704 16.0381C171.704 17.0518 171.789 17.875 171.959 18.5078C171.976 18.5664 171.985 18.6221 171.985 18.6748C171.985 18.8389 171.921 18.9678 171.792 19.0615C171.669 19.1611 171.534 19.2109 171.387 19.2109C171.276 19.2109 171.171 19.1787 171.071 19.1143C170.971 19.0498 170.901 18.9443 170.86 18.7979C170.678 18.124 170.582 17.2686 170.57 16.2314C170.013 17.1279 169.416 17.834 168.777 18.3496C168.39 18.6602 167.992 18.8359 167.582 18.877C167.336 18.9473 167.095 18.9824 166.861 18.9824C166.527 18.9824 166.222 18.9209 165.947 18.7979C165.671 18.6748 165.434 18.5195 165.235 18.332C164.878 17.998 164.599 17.5674 164.4 17.04C164.207 16.5068 164.11 15.8916 164.11 15.1943C164.11 14.2979 164.318 13.4424 164.734 12.6279C165.343 11.4326 166.269 10.6357 167.511 10.2373C167.986 10.0791 168.443 10 168.882 10C169.433 10 169.952 10.1289 170.438 10.3867C171.288 10.8379 171.771 11.6729 171.888 12.8916ZM170.746 12.9707C170.693 12.4082 170.508 11.9629 170.192 11.6348C169.881 11.3066 169.457 11.1426 168.918 11.1426C168.595 11.1426 168.244 11.2041 167.863 11.3271C166.92 11.626 166.231 12.2031 165.797 13.0586C165.434 13.7793 165.253 14.4971 165.253 15.2119C165.253 15.7158 165.32 16.167 165.455 16.5654C165.589 16.9639 165.762 17.2627 165.973 17.4619C166.237 17.708 166.536 17.8311 166.87 17.8311C166.981 17.8311 167.087 17.8193 167.186 17.7959C167.292 17.7666 167.409 17.7461 167.538 17.7344C167.637 17.7227 167.834 17.6025 168.127 17.374C168.42 17.1396 168.73 16.8086 169.058 16.3809C169.392 15.9531 169.706 15.4727 169.999 14.9395C170.292 14.4062 170.529 13.8701 170.711 13.3311C170.716 13.2725 170.722 13.2139 170.728 13.1553C170.734 13.0908 170.74 13.0293 170.746 12.9707Z" fill="black" fill-opacity="0.2"/>
<path d="M48.5362 25.5994V47.9994H46.4562V25.5994H48.5362ZM55.8002 36.4794V37.4394H48.4402V36.4794H55.8002ZM57.1762 25.5994V26.5914H48.4402V25.5994H57.1762ZM55.8002 37.3754V39.4874H55.4802V39.0074C55.4802 38.5807 55.3309 38.2181 55.0322 37.9194C54.7335 37.5994 54.3709 37.4394 53.9442 37.4394V37.3754H55.8002ZM55.8002 34.4314V36.5434H53.9442V36.4794C54.3709 36.4581 54.7335 36.2981 55.0322 35.9994C55.3309 35.6794 55.4802 35.3061 55.4802 34.8794V34.4314H55.8002ZM57.1762 26.4954V28.6394H56.8562V28.1594C56.8562 27.7327 56.6962 27.3701 56.3762 27.0714C56.0775 26.7514 55.7149 26.5914 55.2882 26.5914V26.4954H57.1762ZM57.1762 25.0234V25.9514L53.2722 25.5994C53.7415 25.5994 54.2322 25.5674 54.7442 25.5034C55.2775 25.4394 55.7682 25.3647 56.2162 25.2794C56.6642 25.1941 56.9842 25.1087 57.1762 25.0234ZM46.5522 45.6634V47.9994H43.9922V47.6794C43.9922 47.6794 44.0562 47.6794 44.1842 47.6794C44.3335 47.6794 44.4082 47.6794 44.4082 47.6794C44.9629 47.6794 45.4322 47.4874 45.8162 47.1034C46.2215 46.6981 46.4349 46.2181 46.4562 45.6634H46.5522ZM46.5522 27.9354H46.4562C46.4562 27.3807 46.2535 26.9114 45.8482 26.5274C45.4429 26.1221 44.9629 25.9194 44.4082 25.9194C44.4082 25.9194 44.3442 25.9194 44.2162 25.9194C44.0882 25.9194 44.0242 25.9194 44.0242 25.9194L43.9922 25.5994H46.5522V27.9354ZM48.4402 45.6634H48.5362C48.5575 46.2181 48.7602 46.6981 49.1442 47.1034C49.5495 47.4874 50.0295 47.6794 50.5842 47.6794C50.5842 47.6794 50.6482 47.6794 50.7762 47.6794C50.9042 47.6794 50.9789 47.6794 51.0002 47.6794V47.9994H48.4402V45.6634ZM62.9355 28.7994V47.9994H60.8875V28.7994H62.9355ZM71.5435 47.0074L71.4795 47.9994H62.8715V47.0074H71.5435ZM73.3355 43.4234L71.5755 47.9994H66.7115L67.7995 47.0074C68.8661 47.0074 69.7195 46.8581 70.3595 46.5594C71.0208 46.2394 71.5541 45.8127 71.9595 45.2794C72.3648 44.7247 72.7168 44.1061 73.0155 43.4234H73.3355ZM60.9515 45.9514L61.3675 47.9994H58.5835V47.6794C58.5835 47.6794 58.6581 47.6794 58.8075 47.6794C58.9568 47.6794 59.0315 47.6794 59.0315 47.6794C59.5648 47.6794 60.0021 47.5087 60.3435 47.1674C60.6848 46.8261 60.8661 46.4207 60.8875 45.9514H60.9515ZM62.8395 30.8474V28.7994H65.2075V29.1194C65.2075 29.1194 65.1435 29.1194 65.0155 29.1194C64.8875 29.1194 64.8235 29.1194 64.8235 29.1194C64.3115 29.1194 63.8635 29.2901 63.4795 29.6314C63.1168 29.9514 62.9355 30.3567 62.9355 30.8474H62.8395ZM60.9515 30.8474H60.8875C60.8661 30.3567 60.6741 29.9514 60.3115 29.6314C59.9488 29.2901 59.5008 29.1194 58.9675 29.1194C58.9675 29.1194 58.9035 29.1194 58.7755 29.1194C58.6475 29.1194 58.5835 29.1194 58.5835 29.1194V28.7994H60.9515V30.8474ZM84.9275 28.3514C86.4208 28.3514 87.8181 28.5967 89.1195 29.0874C90.4421 29.5567 91.5941 30.2394 92.5755 31.1354C93.5781 32.0314 94.3568 33.0981 94.9115 34.3354C95.4661 35.5514 95.7435 36.9061 95.7435 38.3994C95.7435 39.8927 95.4661 41.2581 94.9115 42.4954C94.3568 43.7114 93.5781 44.7674 92.5755 45.6634C91.5941 46.5594 90.4421 47.2527 89.1195 47.7434C87.8181 48.2127 86.4208 48.4474 84.9275 48.4474C83.4341 48.4474 82.0368 48.2127 80.7355 47.7434C79.4341 47.2527 78.2821 46.5594 77.2795 45.6634C76.2981 44.7674 75.5301 43.7114 74.9755 42.4954C74.4208 41.2581 74.1435 39.8927 74.1435 38.3994C74.1435 36.9061 74.4208 35.5514 74.9755 34.3354C75.5301 33.0981 76.2981 32.0314 77.2795 31.1354C78.2821 30.2394 79.4341 29.5567 80.7355 29.0874C82.0368 28.5967 83.4341 28.3514 84.9275 28.3514ZM84.9275 47.4874C86.5061 47.4874 87.9355 47.1034 89.2155 46.3354C90.4955 45.5674 91.5088 44.5007 92.2555 43.1354C93.0021 41.7701 93.3755 40.1914 93.3755 38.3994C93.3755 36.5861 93.0021 35.0074 92.2555 33.6634C91.5088 32.2981 90.4955 31.2314 89.2155 30.4634C87.9355 29.6954 86.5061 29.3114 84.9275 29.3114C83.3701 29.3114 81.9515 29.6954 80.6715 30.4634C79.3915 31.2314 78.3781 32.2981 77.6315 33.6634C76.8848 35.0074 76.5115 36.5861 76.5115 38.3994C76.5115 40.1914 76.8848 41.7701 77.6315 43.1354C78.3781 44.5007 79.3915 45.5674 80.6715 46.3354C81.9515 47.1034 83.3701 47.4874 84.9275 47.4874ZM97.5562 28.9914H100.116L105.3 44.7674L105.012 48.3834L97.5562 28.9914ZM110.708 28.2874L110.964 30.8794L106.004 44.8314C106.004 44.8314 105.951 45.0234 105.844 45.4074C105.737 45.7701 105.62 46.2287 105.492 46.7834C105.385 47.3167 105.321 47.8501 105.3 48.3834H105.012L104.404 45.5354L110.388 28.2874H110.708ZM110.708 28.3194L116.852 43.9674L116.116 48.3834L109.62 31.7754L110.708 28.3194ZM122.484 28.9914L117.172 44.8314C117.172 44.8314 117.108 45.0234 116.98 45.4074C116.873 45.7914 116.756 46.2607 116.628 46.8154C116.521 47.3487 116.457 47.8714 116.436 48.3834H116.116L115.732 45.2154L120.66 28.9914H122.484ZM120.02 31.0394C120.255 30.3567 120.233 29.8661 119.956 29.5674C119.7 29.2687 119.401 29.1194 119.06 29.1194H118.804V28.7994H124.66V29.1194C124.66 29.1194 124.617 29.1194 124.532 29.1194C124.468 29.1194 124.436 29.1194 124.436 29.1194C123.775 29.1194 123.22 29.3007 122.772 29.6634C122.324 30.0261 122.004 30.4847 121.812 31.0394H120.02ZM100.788 31.0074L98.3562 31.0394C98.1429 30.4847 97.8229 30.0261 97.3962 29.6634C96.9695 29.3007 96.4149 29.1194 95.7322 29.1194C95.7322 29.1194 95.6895 29.1194 95.6042 29.1194C95.5189 29.1194 95.4762 29.1194 95.4762 29.1194V28.7994H102.068V29.1194H101.812C101.471 29.1194 101.161 29.2687 100.884 29.5674C100.607 29.8447 100.575 30.3247 100.788 31.0074ZM129.345 28.7994V47.9994H127.297V28.7994H129.345ZM137.953 47.0074L137.889 47.9994H129.281V47.0074H137.953ZM136.449 37.9194V38.8794H129.281V37.9194H136.449ZM137.921 28.7994V29.7914H129.281V28.7994H137.921ZM139.745 43.4234L137.985 47.9994H133.121L134.209 47.0074C135.276 47.0074 136.129 46.8581 136.769 46.5594C137.431 46.2394 137.964 45.8127 138.369 45.2794C138.775 44.7247 139.127 44.1061 139.425 43.4234H139.745ZM136.449 38.8154V40.6394H136.097V40.2234C136.097 39.8607 135.991 39.5514 135.777 39.2954C135.564 39.0181 135.233 38.8794 134.785 38.8794V38.8154H136.449ZM136.449 36.1594V37.9834H134.785V37.9194C135.233 37.9194 135.564 37.7914 135.777 37.5354C135.991 37.2581 136.097 36.9381 136.097 36.5754V36.1594H136.449ZM137.921 29.6954V31.9034H137.569V31.4234C137.569 30.9754 137.42 30.5914 137.121 30.2714C136.844 29.9514 136.46 29.7914 135.969 29.7914V29.6954H137.921ZM137.921 28.2874V29.1194L134.273 28.7994C134.935 28.7994 135.639 28.7461 136.385 28.6394C137.132 28.5114 137.644 28.3941 137.921 28.2874ZM127.361 45.9514L127.777 47.9994H124.993V47.6794C124.993 47.6794 125.068 47.6794 125.217 47.6794C125.367 47.6794 125.441 47.6794 125.441 47.6794C125.975 47.6794 126.412 47.5087 126.753 47.1674C127.095 46.8261 127.276 46.4207 127.297 45.9514H127.361ZM127.361 30.8154H127.297C127.276 30.3247 127.095 29.9194 126.753 29.5994C126.412 29.2794 125.975 29.1194 125.441 29.1194C125.441 29.1194 125.367 29.1194 125.217 29.1194C125.068 29.1194 124.993 29.1194 124.993 29.1194V28.7994H127.777L127.361 30.8154ZM144.773 28.7994H148.901C149.904 28.7994 150.8 28.9167 151.589 29.1514C152.4 29.3861 153.083 29.7274 153.637 30.1754C154.213 30.6234 154.651 31.1674 154.949 31.8074C155.248 32.4474 155.397 33.1727 155.397 33.9834C155.397 34.8794 155.184 35.7114 154.757 36.4794C154.331 37.2474 153.733 37.8767 152.965 38.3674C152.219 38.8581 151.365 39.1567 150.405 39.2634C150.768 39.4127 151.184 39.7434 151.653 40.2554C152.144 40.7674 152.56 41.2687 152.901 41.7594C152.901 41.7594 153.04 41.9514 153.317 42.3354C153.595 42.6981 153.947 43.1567 154.373 43.7114C154.821 44.2447 155.259 44.7567 155.685 45.2474C156.133 45.7381 156.539 46.1647 156.902 46.5274C157.285 46.8901 157.691 47.1781 158.117 47.3914C158.565 47.5834 159.077 47.6794 159.653 47.6794V47.9994H158.661C157.488 47.9994 156.518 47.8501 155.749 47.5514C155.003 47.2527 154.395 46.8901 153.925 46.4634C153.456 46.0154 153.051 45.5887 152.709 45.1834C152.624 45.0767 152.421 44.8101 152.101 44.3834C151.803 43.9354 151.472 43.4554 151.109 42.9434C150.747 42.4314 150.416 41.9727 150.117 41.5674C149.819 41.1407 149.637 40.8847 149.573 40.7994C149.147 40.2447 148.656 39.7541 148.101 39.3274C147.547 38.8794 146.96 38.6554 146.341 38.6554V38.3354C146.341 38.3354 146.512 38.3461 146.853 38.3674C147.195 38.3674 147.632 38.3567 148.165 38.3354C148.763 38.3141 149.36 38.2714 149.957 38.2074C150.555 38.1221 151.109 37.8874 151.621 37.5034C152.155 37.1194 152.571 36.4794 152.869 35.5834C152.955 35.3487 153.019 35.0714 153.061 34.7514C153.104 34.4314 153.115 34.1007 153.093 33.7594C153.072 33.1621 152.955 32.6287 152.741 32.1594C152.549 31.6901 152.261 31.2847 151.877 30.9434C151.515 30.6021 151.077 30.3354 150.565 30.1434C150.053 29.9514 149.477 29.8447 148.837 29.8234C147.835 29.7807 146.96 29.7701 146.213 29.7914C145.467 29.8127 145.093 29.8127 145.093 29.7914C145.093 29.7701 145.061 29.6847 144.997 29.5354C144.955 29.3647 144.901 29.2047 144.837 29.0554C144.795 28.8847 144.773 28.7994 144.773 28.7994ZM145.157 28.7994V47.9994H143.109V28.7994H145.157ZM143.205 45.9514L143.589 47.9994H140.869V47.6794C140.869 47.6794 140.944 47.6794 141.093 47.6794C141.243 47.6794 141.317 47.6794 141.317 47.6794C141.829 47.6794 142.256 47.5087 142.597 47.1674C142.939 46.8261 143.12 46.4207 143.141 45.9514H143.205ZM143.205 30.8154H143.141C143.12 30.3247 142.939 29.9194 142.597 29.5994C142.256 29.2794 141.829 29.1194 141.317 29.1194C141.317 29.1194 141.243 29.1194 141.093 29.1194C140.944 29.1194 140.869 29.1194 140.869 29.1194V28.7994H143.589L143.205 30.8154ZM145.061 45.9514H145.157C145.179 46.4207 145.36 46.8261 145.701 47.1674C146.043 47.5087 146.469 47.6794 146.981 47.6794C146.981 47.6794 147.045 47.6794 147.173 47.6794C147.323 47.6794 147.397 47.6794 147.397 47.6794L147.429 47.9994H144.677L145.061 45.9514ZM165.38 28.3514C165.977 28.3514 166.5 28.3727 166.948 28.4154C167.396 28.4581 167.78 28.5114 168.1 28.5754C168.441 28.6181 168.729 28.6821 168.964 28.7674C169.22 28.8314 169.444 28.8954 169.636 28.9594L169.668 32.1274H169.284C169.284 31.2527 168.985 30.5701 168.388 30.0794C167.791 29.5674 166.863 29.3114 165.604 29.3114C164.537 29.3114 163.62 29.6101 162.852 30.2074C162.105 30.7834 161.743 31.4981 161.764 32.3514C161.764 32.6287 161.796 32.9167 161.86 33.2154C161.945 33.4927 162.073 33.7701 162.244 34.0474C162.436 34.3247 162.692 34.6021 163.012 34.8794L169.476 39.8714C169.967 40.2767 170.329 40.7994 170.564 41.4394C170.799 42.0581 170.927 42.6767 170.948 43.2954C170.969 44.2341 170.724 45.0981 170.212 45.8874C169.7 46.6767 169.007 47.3061 168.132 47.7754C167.279 48.2234 166.329 48.4474 165.284 48.4474C164.665 48.4474 163.993 48.3941 163.268 48.2874C162.564 48.1807 161.903 48.0207 161.284 47.8074C160.665 47.5727 160.153 47.2847 159.748 46.9434C159.684 46.6447 159.652 46.2714 159.652 45.8234C159.652 45.3541 159.684 44.8634 159.748 44.3514C159.833 43.8394 159.94 43.3807 160.068 42.9754H160.452C160.367 43.9354 160.505 44.7567 160.868 45.4394C161.231 46.1221 161.764 46.6447 162.468 47.0074C163.172 47.3487 163.993 47.5087 164.932 47.4874C166.255 47.4447 167.289 47.1141 168.036 46.4954C168.804 45.8554 169.188 45.0127 169.188 43.9674C169.188 43.4554 169.092 42.9967 168.9 42.5914C168.729 42.1647 168.441 41.7701 168.036 41.4074L161.636 36.4794C161.039 35.9674 160.633 35.4021 160.42 34.7834C160.207 34.1647 160.1 33.5781 160.1 33.0234C160.1 32.1487 160.335 31.3594 160.804 30.6554C161.273 29.9514 161.903 29.3967 162.692 28.9914C163.503 28.5647 164.399 28.3514 165.38 28.3514ZM169.604 28.6394L169.636 29.2154H167.364V28.6394H169.604Z" fill="black"/>
<path d="M48.5362 25.5994V47.9994H46.4562V25.5994H48.5362ZM55.8002 36.4794V37.4394H48.4402V36.4794H55.8002ZM57.1762 25.5994V26.5914H48.4402V25.5994H57.1762ZM55.8002 37.3754V39.4874H55.4802V39.0074C55.4802 38.5807 55.3309 38.2181 55.0322 37.9194C54.7335 37.5994 54.3709 37.4394 53.9442 37.4394V37.3754H55.8002ZM55.8002 34.4314V36.5434H53.9442V36.4794C54.3709 36.4581 54.7335 36.2981 55.0322 35.9994C55.3309 35.6794 55.4802 35.3061 55.4802 34.8794V34.4314H55.8002ZM57.1762 26.4954V28.6394H56.8562V28.1594C56.8562 27.7327 56.6962 27.3701 56.3762 27.0714C56.0775 26.7514 55.7149 26.5914 55.2882 26.5914V26.4954H57.1762ZM57.1762 25.0234V25.9514L53.2722 25.5994C53.7415 25.5994 54.2322 25.5674 54.7442 25.5034C55.2775 25.4394 55.7682 25.3647 56.2162 25.2794C56.6642 25.1941 56.9842 25.1087 57.1762 25.0234ZM46.5522 45.6634V47.9994H43.9922V47.6794C43.9922 47.6794 44.0562 47.6794 44.1842 47.6794C44.3335 47.6794 44.4082 47.6794 44.4082 47.6794C44.9629 47.6794 45.4322 47.4874 45.8162 47.1034C46.2215 46.6981 46.4349 46.2181 46.4562 45.6634H46.5522ZM46.5522 27.9354H46.4562C46.4562 27.3807 46.2535 26.9114 45.8482 26.5274C45.4429 26.1221 44.9629 25.9194 44.4082 25.9194C44.4082 25.9194 44.3442 25.9194 44.2162 25.9194C44.0882 25.9194 44.0242 25.9194 44.0242 25.9194L43.9922 25.5994H46.5522V27.9354ZM48.4402 45.6634H48.5362C48.5575 46.2181 48.7602 46.6981 49.1442 47.1034C49.5495 47.4874 50.0295 47.6794 50.5842 47.6794C50.5842 47.6794 50.6482 47.6794 50.7762 47.6794C50.9042 47.6794 50.9789 47.6794 51.0002 47.6794V47.9994H48.4402V45.6634ZM62.9355 28.7994V47.9994H60.8875V28.7994H62.9355ZM71.5435 47.0074L71.4795 47.9994H62.8715V47.0074H71.5435ZM73.3355 43.4234L71.5755 47.9994H66.7115L67.7995 47.0074C68.8661 47.0074 69.7195 46.8581 70.3595 46.5594C71.0208 46.2394 71.5541 45.8127 71.9595 45.2794C72.3648 44.7247 72.7168 44.1061 73.0155 43.4234H73.3355ZM60.9515 45.9514L61.3675 47.9994H58.5835V47.6794C58.5835 47.6794 58.6581 47.6794 58.8075 47.6794C58.9568 47.6794 59.0315 47.6794 59.0315 47.6794C59.5648 47.6794 60.0021 47.5087 60.3435 47.1674C60.6848 46.8261 60.8661 46.4207 60.8875 45.9514H60.9515ZM62.8395 30.8474V28.7994H65.2075V29.1194C65.2075 29.1194 65.1435 29.1194 65.0155 29.1194C64.8875 29.1194 64.8235 29.1194 64.8235 29.1194C64.3115 29.1194 63.8635 29.2901 63.4795 29.6314C63.1168 29.9514 62.9355 30.3567 62.9355 30.8474H62.8395ZM60.9515 30.8474H60.8875C60.8661 30.3567 60.6741 29.9514 60.3115 29.6314C59.9488 29.2901 59.5008 29.1194 58.9675 29.1194C58.9675 29.1194 58.9035 29.1194 58.7755 29.1194C58.6475 29.1194 58.5835 29.1194 58.5835 29.1194V28.7994H60.9515V30.8474ZM84.9275 28.3514C86.4208 28.3514 87.8181 28.5967 89.1195 29.0874C90.4421 29.5567 91.5941 30.2394 92.5755 31.1354C93.5781 32.0314 94.3568 33.0981 94.9115 34.3354C95.4661 35.5514 95.7435 36.9061 95.7435 38.3994C95.7435 39.8927 95.4661 41.2581 94.9115 42.4954C94.3568 43.7114 93.5781 44.7674 92.5755 45.6634C91.5941 46.5594 90.4421 47.2527 89.1195 47.7434C87.8181 48.2127 86.4208 48.4474 84.9275 48.4474C83.4341 48.4474 82.0368 48.2127 80.7355 47.7434C79.4341 47.2527 78.2821 46.5594 77.2795 45.6634C76.2981 44.7674 75.5301 43.7114 74.9755 42.4954C74.4208 41.2581 74.1435 39.8927 74.1435 38.3994C74.1435 36.9061 74.4208 35.5514 74.9755 34.3354C75.5301 33.0981 76.2981 32.0314 77.2795 31.1354C78.2821 30.2394 79.4341 29.5567 80.7355 29.0874C82.0368 28.5967 83.4341 28.3514 84.9275 28.3514ZM84.9275 47.4874C86.5061 47.4874 87.9355 47.1034 89.2155 46.3354C90.4955 45.5674 91.5088 44.5007 92.2555 43.1354C93.0021 41.7701 93.3755 40.1914 93.3755 38.3994C93.3755 36.5861 93.0021 35.0074 92.2555 33.6634C91.5088 32.2981 90.4955 31.2314 89.2155 30.4634C87.9355 29.6954 86.5061 29.3114 84.9275 29.3114C83.3701 29.3114 81.9515 29.6954 80.6715 30.4634C79.3915 31.2314 78.3781 32.2981 77.6315 33.6634C76.8848 35.0074 76.5115 36.5861 76.5115 38.3994C76.5115 40.1914 76.8848 41.7701 77.6315 43.1354C78.3781 44.5007 79.3915 45.5674 80.6715 46.3354C81.9515 47.1034 83.3701 47.4874 84.9275 47.4874ZM97.5562 28.9914H100.116L105.3 44.7674L105.012 48.3834L97.5562 28.9914ZM110.708 28.2874L110.964 30.8794L106.004 44.8314C106.004 44.8314 105.951 45.0234 105.844 45.4074C105.737 45.7701 105.62 46.2287 105.492 46.7834C105.385 47.3167 105.321 47.8501 105.3 48.3834H105.012L104.404 45.5354L110.388 28.2874H110.708ZM110.708 28.3194L116.852 43.9674L116.116 48.3834L109.62 31.7754L110.708 28.3194ZM122.484 28.9914L117.172 44.8314C117.172 44.8314 117.108 45.0234 116.98 45.4074C116.873 45.7914 116.756 46.2607 116.628 46.8154C116.521 47.3487 116.457 47.8714 116.436 48.3834H116.116L115.732 45.2154L120.66 28.9914H122.484ZM120.02 31.0394C120.255 30.3567 120.233 29.8661 119.956 29.5674C119.7 29.2687 119.401 29.1194 119.06 29.1194H118.804V28.7994H124.66V29.1194C124.66 29.1194 124.617 29.1194 124.532 29.1194C124.468 29.1194 124.436 29.1194 124.436 29.1194C123.775 29.1194 123.22 29.3007 122.772 29.6634C122.324 30.0261 122.004 30.4847 121.812 31.0394H120.02ZM100.788 31.0074L98.3562 31.0394C98.1429 30.4847 97.8229 30.0261 97.3962 29.6634C96.9695 29.3007 96.4149 29.1194 95.7322 29.1194C95.7322 29.1194 95.6895 29.1194 95.6042 29.1194C95.5189 29.1194 95.4762 29.1194 95.4762 29.1194V28.7994H102.068V29.1194H101.812C101.471 29.1194 101.161 29.2687 100.884 29.5674C100.607 29.8447 100.575 30.3247 100.788 31.0074ZM129.345 28.7994V47.9994H127.297V28.7994H129.345ZM137.953 47.0074L137.889 47.9994H129.281V47.0074H137.953ZM136.449 37.9194V38.8794H129.281V37.9194H136.449ZM137.921 28.7994V29.7914H129.281V28.7994H137.921ZM139.745 43.4234L137.985 47.9994H133.121L134.209 47.0074C135.276 47.0074 136.129 46.8581 136.769 46.5594C137.431 46.2394 137.964 45.8127 138.369 45.2794C138.775 44.7247 139.127 44.1061 139.425 43.4234H139.745ZM136.449 38.8154V40.6394H136.097V40.2234C136.097 39.8607 135.991 39.5514 135.777 39.2954C135.564 39.0181 135.233 38.8794 134.785 38.8794V38.8154H136.449ZM136.449 36.1594V37.9834H134.785V37.9194C135.233 37.9194 135.564 37.7914 135.777 37.5354C135.991 37.2581 136.097 36.9381 136.097 36.5754V36.1594H136.449ZM137.921 29.6954V31.9034H137.569V31.4234C137.569 30.9754 137.42 30.5914 137.121 30.2714C136.844 29.9514 136.46 29.7914 135.969 29.7914V29.6954H137.921ZM137.921 28.2874V29.1194L134.273 28.7994C134.935 28.7994 135.639 28.7461 136.385 28.6394C137.132 28.5114 137.644 28.3941 137.921 28.2874ZM127.361 45.9514L127.777 47.9994H124.993V47.6794C124.993 47.6794 125.068 47.6794 125.217 47.6794C125.367 47.6794 125.441 47.6794 125.441 47.6794C125.975 47.6794 126.412 47.5087 126.753 47.1674C127.095 46.8261 127.276 46.4207 127.297 45.9514H127.361ZM127.361 30.8154H127.297C127.276 30.3247 127.095 29.9194 126.753 29.5994C126.412 29.2794 125.975 29.1194 125.441 29.1194C125.441 29.1194 125.367 29.1194 125.217 29.1194C125.068 29.1194 124.993 29.1194 124.993 29.1194V28.7994H127.777L127.361 30.8154ZM144.773 28.7994H148.901C149.904 28.7994 150.8 28.9167 151.589 29.1514C152.4 29.3861 153.083 29.7274 153.637 30.1754C154.213 30.6234 154.651 31.1674 154.949 31.8074C155.248 32.4474 155.397 33.1727 155.397 33.9834C155.397 34.8794 155.184 35.7114 154.757 36.4794C154.331 37.2474 153.733 37.8767 152.965 38.3674C152.219 38.8581 151.365 39.1567 150.405 39.2634C150.768 39.4127 151.184 39.7434 151.653 40.2554C152.144 40.7674 152.56 41.2687 152.901 41.7594C152.901 41.7594 153.04 41.9514 153.317 42.3354C153.595 42.6981 153.947 43.1567 154.373 43.7114C154.821 44.2447 155.259 44.7567 155.685 45.2474C156.133 45.7381 156.539 46.1647 156.902 46.5274C157.285 46.8901 157.691 47.1781 158.117 47.3914C158.565 47.5834 159.077 47.6794 159.653 47.6794V47.9994H158.661C157.488 47.9994 156.518 47.8501 155.749 47.5514C155.003 47.2527 154.395 46.8901 153.925 46.4634C153.456 46.0154 153.051 45.5887 152.709 45.1834C152.624 45.0767 152.421 44.8101 152.101 44.3834C151.803 43.9354 151.472 43.4554 151.109 42.9434C150.747 42.4314 150.416 41.9727 150.117 41.5674C149.819 41.1407 149.637 40.8847 149.573 40.7994C149.147 40.2447 148.656 39.7541 148.101 39.3274C147.547 38.8794 146.96 38.6554 146.341 38.6554V38.3354C146.341 38.3354 146.512 38.3461 146.853 38.3674C147.195 38.3674 147.632 38.3567 148.165 38.3354C148.763 38.3141 149.36 38.2714 149.957 38.2074C150.555 38.1221 151.109 37.8874 151.621 37.5034C152.155 37.1194 152.571 36.4794 152.869 35.5834C152.955 35.3487 153.019 35.0714 153.061 34.7514C153.104 34.4314 153.115 34.1007 153.093 33.7594C153.072 33.1621 152.955 32.6287 152.741 32.1594C152.549 31.6901 152.261 31.2847 151.877 30.9434C151.515 30.6021 151.077 30.3354 150.565 30.1434C150.053 29.9514 149.477 29.8447 148.837 29.8234C147.835 29.7807 146.96 29.7701 146.213 29.7914C145.467 29.8127 145.093 29.8127 145.093 29.7914C145.093 29.7701 145.061 29.6847 144.997 29.5354C144.955 29.3647 144.901 29.2047 144.837 29.0554C144.795 28.8847 144.773 28.7994 144.773 28.7994ZM145.157 28.7994V47.9994H143.109V28.7994H145.157ZM143.205 45.9514L143.589 47.9994H140.869V47.6794C140.869 47.6794 140.944 47.6794 141.093 47.6794C141.243 47.6794 141.317 47.6794 141.317 47.6794C141.829 47.6794 142.256 47.5087 142.597 47.1674C142.939 46.8261 143.12 46.4207 143.141 45.9514H143.205ZM143.205 30.8154H143.141C143.12 30.3247 142.939 29.9194 142.597 29.5994C142.256 29.2794 141.829 29.1194 141.317 29.1194C141.317 29.1194 141.243 29.1194 141.093 29.1194C140.944 29.1194 140.869 29.1194 140.869 29.1194V28.7994H143.589L143.205 30.8154ZM145.061 45.9514H145.157C145.179 46.4207 145.36 46.8261 145.701 47.1674C146.043 47.5087 146.469 47.6794 146.981 47.6794C146.981 47.6794 147.045 47.6794 147.173 47.6794C147.323 47.6794 147.397 47.6794 147.397 47.6794L147.429 47.9994H144.677L145.061 45.9514ZM165.38 28.3514C165.977 28.3514 166.5 28.3727 166.948 28.4154C167.396 28.4581 167.78 28.5114 168.1 28.5754C168.441 28.6181 168.729 28.6821 168.964 28.7674C169.22 28.8314 169.444 28.8954 169.636 28.9594L169.668 32.1274H169.284C169.284 31.2527 168.985 30.5701 168.388 30.0794C167.791 29.5674 166.863 29.3114 165.604 29.3114C164.537 29.3114 163.62 29.6101 162.852 30.2074C162.105 30.7834 161.743 31.4981 161.764 32.3514C161.764 32.6287 161.796 32.9167 161.86 33.2154C161.945 33.4927 162.073 33.7701 162.244 34.0474C162.436 34.3247 162.692 34.6021 163.012 34.8794L169.476 39.8714C169.967 40.2767 170.329 40.7994 170.564 41.4394C170.799 42.0581 170.927 42.6767 170.948 43.2954C170.969 44.2341 170.724 45.0981 170.212 45.8874C169.7 46.6767 169.007 47.3061 168.132 47.7754C167.279 48.2234 166.329 48.4474 165.284 48.4474C164.665 48.4474 163.993 48.3941 163.268 48.2874C162.564 48.1807 161.903 48.0207 161.284 47.8074C160.665 47.5727 160.153 47.2847 159.748 46.9434C159.684 46.6447 159.652 46.2714 159.652 45.8234C159.652 45.3541 159.684 44.8634 159.748 44.3514C159.833 43.8394 159.94 43.3807 160.068 42.9754H160.452C160.367 43.9354 160.505 44.7567 160.868 45.4394C161.231 46.1221 161.764 46.6447 162.468 47.0074C163.172 47.3487 163.993 47.5087 164.932 47.4874C166.255 47.4447 167.289 47.1141 168.036 46.4954C168.804 45.8554 169.188 45.0127 169.188 43.9674C169.188 43.4554 169.092 42.9967 168.9 42.5914C168.729 42.1647 168.441 41.7701 168.036 41.4074L161.636 36.4794C161.039 35.9674 160.633 35.4021 160.42 34.7834C160.207 34.1647 160.1 33.5781 160.1 33.0234C160.1 32.1487 160.335 31.3594 160.804 30.6554C161.273 29.9514 161.903 29.3967 162.692 28.9914C163.503 28.5647 164.399 28.3514 165.38 28.3514ZM169.604 28.6394L169.636 29.2154H167.364V28.6394H169.604Z" fill="black" fill-opacity="0.2"/>
</svg>
