<svg width="24" height="24" viewBox="0 0 24 24" fill="none" xmlns="http://www.w3.org/2000/svg">
<g id="ic:twotone-arrow-outward">
<path id="Arrow" d="M6.46967 16.9853C6.17678 17.2782 6.17678 17.7531 6.46967 18.046C6.76256 18.3388 7.23744 18.3388 7.53033 18.046L6.46967 16.9853ZM16.75 8.51563C16.75 8.10141 16.4142 7.76563 16 7.76563L9.25 7.76562C8.83579 7.76562 8.5 8.10141 8.5 8.51562C8.5 8.92984 8.83579 9.26563 9.25 9.26563H15.25V15.2656C15.25 15.6798 15.5858 16.0156 16 16.0156C16.4142 16.0156 16.75 15.6798 16.75 15.2656L16.75 8.51563ZM7.53033 18.046L16.5303 9.04595L15.4697 7.98529L6.46967 16.9853L7.53033 18.046Z" fill="#4B664E"/>
</g>
</svg>
