<svg width="25" height="24" viewBox="0 0 25 24" fill="none" xmlns="http://www.w3.org/2000/svg">
<g id="uiw:time">
<path id="Vector" d="M12.5 6C16.0899 6 19 8.91005 19 12.5C19 16.0899 16.0899 19 12.5 19C8.91005 19 6 16.0899 6 12.5C6 8.91005 8.91005 6 12.5 6ZM11.8955 9.62765C11.7752 9.62765 11.6598 9.67545 11.5747 9.76054C11.4896 9.84562 11.4418 9.96102 11.4418 10.0813V13.709C11.4418 13.9599 11.6446 14.1627 11.8955 14.1627H15.5231C15.5841 14.165 15.645 14.155 15.702 14.1332C15.759 14.1115 15.811 14.0785 15.855 14.0362C15.899 13.9938 15.9339 13.9431 15.9578 13.8869C15.9817 13.8307 15.994 13.7704 15.994 13.7093C15.994 13.6483 15.9817 13.5879 15.9578 13.5317C15.9339 13.4756 15.899 13.4248 15.855 13.3825C15.811 13.3402 15.759 13.3071 15.702 13.2854C15.645 13.2637 15.5841 13.2536 15.5231 13.2559H12.3485V10.0813C12.3485 9.96113 12.3008 9.84583 12.2159 9.76077C12.1309 9.6757 12.0157 9.62782 11.8955 9.62765Z" fill="#97A787"/>
</g>
</svg>
