<svg width="24" height="24" viewBox="0 0 24 24" fill="none" xmlns="http://www.w3.org/2000/svg">
<g id="Phone">
<path id="Vector" d="M14.7664 13.9815L14.4125 14.3545C14.4125 14.3545 13.5702 15.2407 11.2718 12.8211C8.97353 10.4016 9.81586 9.51543 9.81586 9.51543L10.0383 9.2799C10.5882 8.70178 10.6403 7.77283 10.1604 7.09424L9.18042 5.70822C8.5862 4.86822 7.43898 4.75704 6.75843 5.47352L5.53733 6.75823C5.20055 7.114 4.975 7.57353 5.00222 8.08413C5.07222 9.39108 5.63066 12.2018 8.74486 15.4811C12.0481 18.9581 15.1475 19.0964 16.4145 18.9713C16.8158 18.9317 17.1643 18.716 17.445 18.4195L18.5495 17.2567C19.2961 16.4718 19.0861 15.1254 18.131 14.5761L16.6455 13.7204C16.0186 13.3597 15.2564 13.4659 14.7664 13.9815Z" fill="#97A787"/>
</g>
</svg>
