<svg width="24" height="24" viewBox="0 0 24 24" fill="none" xmlns="http://www.w3.org/2000/svg">
<path id="Vector" d="M15.2271 14.1417L15.2265 14.1425L14.8067 14.5849C14.8013 14.5858 14.7953 14.5866 14.7885 14.5873C14.7525 14.5911 14.6893 14.5928 14.5948 14.5774C14.2 14.5133 13.266 14.1489 11.6848 12.4843C10.1096 10.826 9.74496 9.82815 9.678 9.37077C9.6534 9.20276 9.66801 9.10426 9.67826 9.06158L9.92215 8.80333C9.92261 8.80285 9.92306 8.80237 9.92352 8.8019C11.0564 7.60941 11.1328 5.74973 10.1885 4.41444C10.1885 4.41442 10.1885 4.4144 10.1885 4.41438L8.78854 2.43442L8.78841 2.43424C7.60575 0.762401 5.22873 0.470206 3.78722 1.98752C3.78715 1.9876 3.78707 1.98768 3.787 1.98776L2.04279 3.82283L2.04279 3.82283L2.04139 3.8243C1.42499 4.47547 0.947443 5.38721 1.00459 6.45913L1.0046 6.45938C1.11673 8.55281 2.00453 12.7965 6.62468 17.6617L6.62481 17.6618C11.5871 22.8851 16.3354 23.1586 18.4047 22.9541C19.2863 22.8672 19.9927 22.3988 20.5043 21.8588C20.5044 21.8586 20.5045 21.8585 20.5047 21.8583L22.0809 20.1988C23.6098 18.5917 23.1633 15.9095 21.2572 14.8132L19.1355 13.5912L19.1351 13.591C17.8486 12.8507 16.2523 13.0632 15.2271 14.1417Z" stroke="#4B664E" stroke-width="2"/>
</svg>
